<?xml version="1.0" encoding="utf-8" standalone="no"?>
<!DOCTYPE svg PUBLIC "-//W3C//DTD SVG 1.1//EN"
  "http://www.w3.org/Graphics/SVG/1.1/DTD/svg11.dtd">
<svg xmlns:xlink="http://www.w3.org/1999/xlink" width="453.6pt" height="338.4pt" viewBox="0 0 453.6 338.4" xmlns="http://www.w3.org/2000/svg" version="1.1">
 <metadata>
  <rdf:RDF xmlns:dc="http://purl.org/dc/elements/1.1/" xmlns:cc="http://creativecommons.org/ns#" xmlns:rdf="http://www.w3.org/1999/02/22-rdf-syntax-ns#">
   <cc:Work>
    <dc:type rdf:resource="http://purl.org/dc/dcmitype/StillImage"/>
    <dc:date>2024-03-05T16:30:18.593130</dc:date>
    <dc:format>image/svg+xml</dc:format>
    <dc:creator>
     <cc:Agent>
      <dc:title>Matplotlib v3.5.2, https://matplotlib.org/</dc:title>
     </cc:Agent>
    </dc:creator>
   </cc:Work>
  </rdf:RDF>
 </metadata>
 <defs>
  <style type="text/css">*{stroke-linejoin: round; stroke-linecap: butt}</style>
 </defs>
 <g id="figure_1">
  <g id="patch_1">
   <path d="M 0 338.4 
L 453.6 338.4 
L 453.6 0 
L 0 0 
z
" style="fill: #ffffff"/>
  </g>
  <g id="axes_1">
   <g id="patch_2">
    <path d="M 51.4 300.821875 
L 446.4 300.821875 
L 446.4 22.318125 
L 51.4 22.318125 
z
" style="fill: #ffffff"/>
   </g>
   <g id="matplotlib.axis_1">
    <g id="xtick_1">
     <g id="line2d_1">
      <defs>
       <path id="m19f520a30f" d="M 0 0 
L 0 3.5 
" style="stroke: #000000; stroke-width: 0.8"/>
      </defs>
      <g>
       <use xlink:href="#m19f520a30f" x="69.08948" y="300.821875" style="stroke: #000000; stroke-width: 0.8"/>
      </g>
     </g>
     <g id="text_1">
      <!-- 100 -->
      <g transform="translate(59.54573 315.420312)scale(0.1 -0.1)">
       <defs>
        <path id="DejaVuSans-31" d="M 794 531 
L 1825 531 
L 1825 4091 
L 703 3866 
L 703 4441 
L 1819 4666 
L 2450 4666 
L 2450 531 
L 3481 531 
L 3481 0 
L 794 0 
L 794 531 
z
" transform="scale(0.015625)"/>
        <path id="DejaVuSans-30" d="M 2034 4250 
Q 1547 4250 1301 3770 
Q 1056 3291 1056 2328 
Q 1056 1369 1301 889 
Q 1547 409 2034 409 
Q 2525 409 2770 889 
Q 3016 1369 3016 2328 
Q 3016 3291 2770 3770 
Q 2525 4250 2034 4250 
z
M 2034 4750 
Q 2819 4750 3233 4129 
Q 3647 3509 3647 2328 
Q 3647 1150 3233 529 
Q 2819 -91 2034 -91 
Q 1250 -91 836 529 
Q 422 1150 422 2328 
Q 422 3509 836 4129 
Q 1250 4750 2034 4750 
z
" transform="scale(0.015625)"/>
       </defs>
       <use xlink:href="#DejaVuSans-31"/>
       <use xlink:href="#DejaVuSans-30" x="63.623047"/>
       <use xlink:href="#DejaVuSans-30" x="127.246094"/>
      </g>
     </g>
    </g>
    <g id="xtick_2">
     <g id="line2d_2">
      <g>
       <use xlink:href="#m19f520a30f" x="148.065661" y="300.821875" style="stroke: #000000; stroke-width: 0.8"/>
      </g>
     </g>
     <g id="text_2">
      <!-- 200 -->
      <g transform="translate(138.521911 315.420312)scale(0.1 -0.1)">
       <defs>
        <path id="DejaVuSans-32" d="M 1228 531 
L 3431 531 
L 3431 0 
L 469 0 
L 469 531 
Q 828 903 1448 1529 
Q 2069 2156 2228 2338 
Q 2531 2678 2651 2914 
Q 2772 3150 2772 3378 
Q 2772 3750 2511 3984 
Q 2250 4219 1831 4219 
Q 1534 4219 1204 4116 
Q 875 4013 500 3803 
L 500 4441 
Q 881 4594 1212 4672 
Q 1544 4750 1819 4750 
Q 2544 4750 2975 4387 
Q 3406 4025 3406 3419 
Q 3406 3131 3298 2873 
Q 3191 2616 2906 2266 
Q 2828 2175 2409 1742 
Q 1991 1309 1228 531 
z
" transform="scale(0.015625)"/>
       </defs>
       <use xlink:href="#DejaVuSans-32"/>
       <use xlink:href="#DejaVuSans-30" x="63.623047"/>
       <use xlink:href="#DejaVuSans-30" x="127.246094"/>
      </g>
     </g>
    </g>
    <g id="xtick_3">
     <g id="line2d_3">
      <g>
       <use xlink:href="#m19f520a30f" x="227.041842" y="300.821875" style="stroke: #000000; stroke-width: 0.8"/>
      </g>
     </g>
     <g id="text_3">
      <!-- 300 -->
      <g transform="translate(217.498092 315.420312)scale(0.1 -0.1)">
       <defs>
        <path id="DejaVuSans-33" d="M 2597 2516 
Q 3050 2419 3304 2112 
Q 3559 1806 3559 1356 
Q 3559 666 3084 287 
Q 2609 -91 1734 -91 
Q 1441 -91 1130 -33 
Q 819 25 488 141 
L 488 750 
Q 750 597 1062 519 
Q 1375 441 1716 441 
Q 2309 441 2620 675 
Q 2931 909 2931 1356 
Q 2931 1769 2642 2001 
Q 2353 2234 1838 2234 
L 1294 2234 
L 1294 2753 
L 1863 2753 
Q 2328 2753 2575 2939 
Q 2822 3125 2822 3475 
Q 2822 3834 2567 4026 
Q 2313 4219 1838 4219 
Q 1578 4219 1281 4162 
Q 984 4106 628 3988 
L 628 4550 
Q 988 4650 1302 4700 
Q 1616 4750 1894 4750 
Q 2613 4750 3031 4423 
Q 3450 4097 3450 3541 
Q 3450 3153 3228 2886 
Q 3006 2619 2597 2516 
z
" transform="scale(0.015625)"/>
       </defs>
       <use xlink:href="#DejaVuSans-33"/>
       <use xlink:href="#DejaVuSans-30" x="63.623047"/>
       <use xlink:href="#DejaVuSans-30" x="127.246094"/>
      </g>
     </g>
    </g>
    <g id="xtick_4">
     <g id="line2d_4">
      <g>
       <use xlink:href="#m19f520a30f" x="306.018023" y="300.821875" style="stroke: #000000; stroke-width: 0.8"/>
      </g>
     </g>
     <g id="text_4">
      <!-- 400 -->
      <g transform="translate(296.474273 315.420312)scale(0.1 -0.1)">
       <defs>
        <path id="DejaVuSans-34" d="M 2419 4116 
L 825 1625 
L 2419 1625 
L 2419 4116 
z
M 2253 4666 
L 3047 4666 
L 3047 1625 
L 3713 1625 
L 3713 1100 
L 3047 1100 
L 3047 0 
L 2419 0 
L 2419 1100 
L 313 1100 
L 313 1709 
L 2253 4666 
z
" transform="scale(0.015625)"/>
       </defs>
       <use xlink:href="#DejaVuSans-34"/>
       <use xlink:href="#DejaVuSans-30" x="63.623047"/>
       <use xlink:href="#DejaVuSans-30" x="127.246094"/>
      </g>
     </g>
    </g>
    <g id="xtick_5">
     <g id="line2d_5">
      <g>
       <use xlink:href="#m19f520a30f" x="384.994204" y="300.821875" style="stroke: #000000; stroke-width: 0.8"/>
      </g>
     </g>
     <g id="text_5">
      <!-- 500 -->
      <g transform="translate(375.450454 315.420312)scale(0.1 -0.1)">
       <defs>
        <path id="DejaVuSans-35" d="M 691 4666 
L 3169 4666 
L 3169 4134 
L 1269 4134 
L 1269 2991 
Q 1406 3038 1543 3061 
Q 1681 3084 1819 3084 
Q 2600 3084 3056 2656 
Q 3513 2228 3513 1497 
Q 3513 744 3044 326 
Q 2575 -91 1722 -91 
Q 1428 -91 1123 -41 
Q 819 9 494 109 
L 494 744 
Q 775 591 1075 516 
Q 1375 441 1709 441 
Q 2250 441 2565 725 
Q 2881 1009 2881 1497 
Q 2881 1984 2565 2268 
Q 2250 2553 1709 2553 
Q 1456 2553 1204 2497 
Q 953 2441 691 2322 
L 691 4666 
z
" transform="scale(0.015625)"/>
       </defs>
       <use xlink:href="#DejaVuSans-35"/>
       <use xlink:href="#DejaVuSans-30" x="63.623047"/>
       <use xlink:href="#DejaVuSans-30" x="127.246094"/>
      </g>
     </g>
    </g>
    <g id="text_6">
     <!-- Specific Enthalpy $h$ / kJ/kg -->
     <g transform="translate(184.05 329.1)scale(0.1 -0.1)">
      <defs>
       <path id="DejaVuSans-53" d="M 3425 4513 
L 3425 3897 
Q 3066 4069 2747 4153 
Q 2428 4238 2131 4238 
Q 1616 4238 1336 4038 
Q 1056 3838 1056 3469 
Q 1056 3159 1242 3001 
Q 1428 2844 1947 2747 
L 2328 2669 
Q 3034 2534 3370 2195 
Q 3706 1856 3706 1288 
Q 3706 609 3251 259 
Q 2797 -91 1919 -91 
Q 1588 -91 1214 -16 
Q 841 59 441 206 
L 441 856 
Q 825 641 1194 531 
Q 1563 422 1919 422 
Q 2459 422 2753 634 
Q 3047 847 3047 1241 
Q 3047 1584 2836 1778 
Q 2625 1972 2144 2069 
L 1759 2144 
Q 1053 2284 737 2584 
Q 422 2884 422 3419 
Q 422 4038 858 4394 
Q 1294 4750 2059 4750 
Q 2388 4750 2728 4690 
Q 3069 4631 3425 4513 
z
" transform="scale(0.015625)"/>
       <path id="DejaVuSans-70" d="M 1159 525 
L 1159 -1331 
L 581 -1331 
L 581 3500 
L 1159 3500 
L 1159 2969 
Q 1341 3281 1617 3432 
Q 1894 3584 2278 3584 
Q 2916 3584 3314 3078 
Q 3713 2572 3713 1747 
Q 3713 922 3314 415 
Q 2916 -91 2278 -91 
Q 1894 -91 1617 61 
Q 1341 213 1159 525 
z
M 3116 1747 
Q 3116 2381 2855 2742 
Q 2594 3103 2138 3103 
Q 1681 3103 1420 2742 
Q 1159 2381 1159 1747 
Q 1159 1113 1420 752 
Q 1681 391 2138 391 
Q 2594 391 2855 752 
Q 3116 1113 3116 1747 
z
" transform="scale(0.015625)"/>
       <path id="DejaVuSans-65" d="M 3597 1894 
L 3597 1613 
L 953 1613 
Q 991 1019 1311 708 
Q 1631 397 2203 397 
Q 2534 397 2845 478 
Q 3156 559 3463 722 
L 3463 178 
Q 3153 47 2828 -22 
Q 2503 -91 2169 -91 
Q 1331 -91 842 396 
Q 353 884 353 1716 
Q 353 2575 817 3079 
Q 1281 3584 2069 3584 
Q 2775 3584 3186 3129 
Q 3597 2675 3597 1894 
z
M 3022 2063 
Q 3016 2534 2758 2815 
Q 2500 3097 2075 3097 
Q 1594 3097 1305 2825 
Q 1016 2553 972 2059 
L 3022 2063 
z
" transform="scale(0.015625)"/>
       <path id="DejaVuSans-63" d="M 3122 3366 
L 3122 2828 
Q 2878 2963 2633 3030 
Q 2388 3097 2138 3097 
Q 1578 3097 1268 2742 
Q 959 2388 959 1747 
Q 959 1106 1268 751 
Q 1578 397 2138 397 
Q 2388 397 2633 464 
Q 2878 531 3122 666 
L 3122 134 
Q 2881 22 2623 -34 
Q 2366 -91 2075 -91 
Q 1284 -91 818 406 
Q 353 903 353 1747 
Q 353 2603 823 3093 
Q 1294 3584 2113 3584 
Q 2378 3584 2631 3529 
Q 2884 3475 3122 3366 
z
" transform="scale(0.015625)"/>
       <path id="DejaVuSans-69" d="M 603 3500 
L 1178 3500 
L 1178 0 
L 603 0 
L 603 3500 
z
M 603 4863 
L 1178 4863 
L 1178 4134 
L 603 4134 
L 603 4863 
z
" transform="scale(0.015625)"/>
       <path id="DejaVuSans-66" d="M 2375 4863 
L 2375 4384 
L 1825 4384 
Q 1516 4384 1395 4259 
Q 1275 4134 1275 3809 
L 1275 3500 
L 2222 3500 
L 2222 3053 
L 1275 3053 
L 1275 0 
L 697 0 
L 697 3053 
L 147 3053 
L 147 3500 
L 697 3500 
L 697 3744 
Q 697 4328 969 4595 
Q 1241 4863 1831 4863 
L 2375 4863 
z
" transform="scale(0.015625)"/>
       <path id="DejaVuSans-20" transform="scale(0.015625)"/>
       <path id="DejaVuSans-45" d="M 628 4666 
L 3578 4666 
L 3578 4134 
L 1259 4134 
L 1259 2753 
L 3481 2753 
L 3481 2222 
L 1259 2222 
L 1259 531 
L 3634 531 
L 3634 0 
L 628 0 
L 628 4666 
z
" transform="scale(0.015625)"/>
       <path id="DejaVuSans-6e" d="M 3513 2113 
L 3513 0 
L 2938 0 
L 2938 2094 
Q 2938 2591 2744 2837 
Q 2550 3084 2163 3084 
Q 1697 3084 1428 2787 
Q 1159 2491 1159 1978 
L 1159 0 
L 581 0 
L 581 3500 
L 1159 3500 
L 1159 2956 
Q 1366 3272 1645 3428 
Q 1925 3584 2291 3584 
Q 2894 3584 3203 3211 
Q 3513 2838 3513 2113 
z
" transform="scale(0.015625)"/>
       <path id="DejaVuSans-74" d="M 1172 4494 
L 1172 3500 
L 2356 3500 
L 2356 3053 
L 1172 3053 
L 1172 1153 
Q 1172 725 1289 603 
Q 1406 481 1766 481 
L 2356 481 
L 2356 0 
L 1766 0 
Q 1100 0 847 248 
Q 594 497 594 1153 
L 594 3053 
L 172 3053 
L 172 3500 
L 594 3500 
L 594 4494 
L 1172 4494 
z
" transform="scale(0.015625)"/>
       <path id="DejaVuSans-68" d="M 3513 2113 
L 3513 0 
L 2938 0 
L 2938 2094 
Q 2938 2591 2744 2837 
Q 2550 3084 2163 3084 
Q 1697 3084 1428 2787 
Q 1159 2491 1159 1978 
L 1159 0 
L 581 0 
L 581 4863 
L 1159 4863 
L 1159 2956 
Q 1366 3272 1645 3428 
Q 1925 3584 2291 3584 
Q 2894 3584 3203 3211 
Q 3513 2838 3513 2113 
z
" transform="scale(0.015625)"/>
       <path id="DejaVuSans-61" d="M 2194 1759 
Q 1497 1759 1228 1600 
Q 959 1441 959 1056 
Q 959 750 1161 570 
Q 1363 391 1709 391 
Q 2188 391 2477 730 
Q 2766 1069 2766 1631 
L 2766 1759 
L 2194 1759 
z
M 3341 1997 
L 3341 0 
L 2766 0 
L 2766 531 
Q 2569 213 2275 61 
Q 1981 -91 1556 -91 
Q 1019 -91 701 211 
Q 384 513 384 1019 
Q 384 1609 779 1909 
Q 1175 2209 1959 2209 
L 2766 2209 
L 2766 2266 
Q 2766 2663 2505 2880 
Q 2244 3097 1772 3097 
Q 1472 3097 1187 3025 
Q 903 2953 641 2809 
L 641 3341 
Q 956 3463 1253 3523 
Q 1550 3584 1831 3584 
Q 2591 3584 2966 3190 
Q 3341 2797 3341 1997 
z
" transform="scale(0.015625)"/>
       <path id="DejaVuSans-6c" d="M 603 4863 
L 1178 4863 
L 1178 0 
L 603 0 
L 603 4863 
z
" transform="scale(0.015625)"/>
       <path id="DejaVuSans-79" d="M 2059 -325 
Q 1816 -950 1584 -1140 
Q 1353 -1331 966 -1331 
L 506 -1331 
L 506 -850 
L 844 -850 
Q 1081 -850 1212 -737 
Q 1344 -625 1503 -206 
L 1606 56 
L 191 3500 
L 800 3500 
L 1894 763 
L 2988 3500 
L 3597 3500 
L 2059 -325 
z
" transform="scale(0.015625)"/>
       <path id="DejaVuSans-Oblique-68" d="M 3566 2113 
L 3156 0 
L 2578 0 
L 2988 2091 
Q 3016 2238 3031 2350 
Q 3047 2463 3047 2528 
Q 3047 2791 2881 2937 
Q 2716 3084 2419 3084 
Q 1956 3084 1617 2771 
Q 1278 2459 1178 1941 
L 800 0 
L 225 0 
L 1172 4863 
L 1747 4863 
L 1375 2950 
Q 1594 3244 1934 3414 
Q 2275 3584 2650 3584 
Q 3113 3584 3367 3334 
Q 3622 3084 3622 2631 
Q 3622 2519 3608 2391 
Q 3594 2263 3566 2113 
z
" transform="scale(0.015625)"/>
       <path id="DejaVuSans-2f" d="M 1625 4666 
L 2156 4666 
L 531 -594 
L 0 -594 
L 1625 4666 
z
" transform="scale(0.015625)"/>
       <path id="DejaVuSans-6b" d="M 581 4863 
L 1159 4863 
L 1159 1991 
L 2875 3500 
L 3609 3500 
L 1753 1863 
L 3688 0 
L 2938 0 
L 1159 1709 
L 1159 0 
L 581 0 
L 581 4863 
z
" transform="scale(0.015625)"/>
       <path id="DejaVuSans-4a" d="M 628 4666 
L 1259 4666 
L 1259 325 
Q 1259 -519 939 -900 
Q 619 -1281 -91 -1281 
L -331 -1281 
L -331 -750 
L -134 -750 
Q 284 -750 456 -515 
Q 628 -281 628 325 
L 628 4666 
z
" transform="scale(0.015625)"/>
       <path id="DejaVuSans-67" d="M 2906 1791 
Q 2906 2416 2648 2759 
Q 2391 3103 1925 3103 
Q 1463 3103 1205 2759 
Q 947 2416 947 1791 
Q 947 1169 1205 825 
Q 1463 481 1925 481 
Q 2391 481 2648 825 
Q 2906 1169 2906 1791 
z
M 3481 434 
Q 3481 -459 3084 -895 
Q 2688 -1331 1869 -1331 
Q 1566 -1331 1297 -1286 
Q 1028 -1241 775 -1147 
L 775 -588 
Q 1028 -725 1275 -790 
Q 1522 -856 1778 -856 
Q 2344 -856 2625 -561 
Q 2906 -266 2906 331 
L 2906 616 
Q 2728 306 2450 153 
Q 2172 0 1784 0 
Q 1141 0 747 490 
Q 353 981 353 1791 
Q 353 2603 747 3093 
Q 1141 3584 1784 3584 
Q 2172 3584 2450 3431 
Q 2728 3278 2906 2969 
L 2906 3500 
L 3481 3500 
L 3481 434 
z
" transform="scale(0.015625)"/>
      </defs>
      <use xlink:href="#DejaVuSans-53" transform="translate(0 0.015625)"/>
      <use xlink:href="#DejaVuSans-70" transform="translate(63.476562 0.015625)"/>
      <use xlink:href="#DejaVuSans-65" transform="translate(126.953125 0.015625)"/>
      <use xlink:href="#DejaVuSans-63" transform="translate(188.476562 0.015625)"/>
      <use xlink:href="#DejaVuSans-69" transform="translate(243.457031 0.015625)"/>
      <use xlink:href="#DejaVuSans-66" transform="translate(271.240234 0.015625)"/>
      <use xlink:href="#DejaVuSans-69" transform="translate(306.445312 0.015625)"/>
      <use xlink:href="#DejaVuSans-63" transform="translate(334.228516 0.015625)"/>
      <use xlink:href="#DejaVuSans-20" transform="translate(389.208984 0.015625)"/>
      <use xlink:href="#DejaVuSans-45" transform="translate(420.996094 0.015625)"/>
      <use xlink:href="#DejaVuSans-6e" transform="translate(484.179688 0.015625)"/>
      <use xlink:href="#DejaVuSans-74" transform="translate(547.558594 0.015625)"/>
      <use xlink:href="#DejaVuSans-68" transform="translate(586.767578 0.015625)"/>
      <use xlink:href="#DejaVuSans-61" transform="translate(650.146484 0.015625)"/>
      <use xlink:href="#DejaVuSans-6c" transform="translate(711.425781 0.015625)"/>
      <use xlink:href="#DejaVuSans-70" transform="translate(739.208984 0.015625)"/>
      <use xlink:href="#DejaVuSans-79" transform="translate(802.685547 0.015625)"/>
      <use xlink:href="#DejaVuSans-20" transform="translate(861.865234 0.015625)"/>
      <use xlink:href="#DejaVuSans-Oblique-68" transform="translate(893.652344 0.015625)"/>
      <use xlink:href="#DejaVuSans-20" transform="translate(957.03125 0.015625)"/>
      <use xlink:href="#DejaVuSans-2f" transform="translate(988.818359 0.015625)"/>
      <use xlink:href="#DejaVuSans-20" transform="translate(1022.509766 0.015625)"/>
      <use xlink:href="#DejaVuSans-6b" transform="translate(1054.296875 0.015625)"/>
      <use xlink:href="#DejaVuSans-4a" transform="translate(1112.207031 0.015625)"/>
      <use xlink:href="#DejaVuSans-2f" transform="translate(1141.699219 0.015625)"/>
      <use xlink:href="#DejaVuSans-6b" transform="translate(1175.390625 0.015625)"/>
      <use xlink:href="#DejaVuSans-67" transform="translate(1233.300781 0.015625)"/>
     </g>
    </g>
   </g>
   <g id="matplotlib.axis_2">
    <g id="ytick_1">
     <g id="line2d_6">
      <defs>
       <path id="m9d3b38568f" d="M 0 0 
L -3.5 0 
" style="stroke: #000000; stroke-width: 0.8"/>
      </defs>
      <g>
       <use xlink:href="#m9d3b38568f" x="51.4" y="275.005445" style="stroke: #000000; stroke-width: 0.8"/>
      </g>
     </g>
     <g id="text_7">
      <!-- $\mathdefault{10^{-2}}$ -->
      <g transform="translate(20.9 278.804664)scale(0.1 -0.1)">
       <defs>
        <path id="DejaVuSans-2212" d="M 678 2272 
L 4684 2272 
L 4684 1741 
L 678 1741 
L 678 2272 
z
" transform="scale(0.015625)"/>
       </defs>
       <use xlink:href="#DejaVuSans-31" transform="translate(0 0.765625)"/>
       <use xlink:href="#DejaVuSans-30" transform="translate(63.623047 0.765625)"/>
       <use xlink:href="#DejaVuSans-2212" transform="translate(128.203125 39.046875)scale(0.7)"/>
       <use xlink:href="#DejaVuSans-32" transform="translate(186.855469 39.046875)scale(0.7)"/>
      </g>
     </g>
    </g>
    <g id="ytick_2">
     <g id="line2d_7">
      <g>
       <use xlink:href="#m9d3b38568f" x="51.4" y="211.2054" style="stroke: #000000; stroke-width: 0.8"/>
      </g>
     </g>
     <g id="text_8">
      <!-- $\mathdefault{10^{-1}}$ -->
      <g transform="translate(20.9 215.004618)scale(0.1 -0.1)">
       <use xlink:href="#DejaVuSans-31" transform="translate(0 0.684375)"/>
       <use xlink:href="#DejaVuSans-30" transform="translate(63.623047 0.684375)"/>
       <use xlink:href="#DejaVuSans-2212" transform="translate(128.203125 38.965625)scale(0.7)"/>
       <use xlink:href="#DejaVuSans-31" transform="translate(186.855469 38.965625)scale(0.7)"/>
      </g>
     </g>
    </g>
    <g id="ytick_3">
     <g id="line2d_8">
      <g>
       <use xlink:href="#m9d3b38568f" x="51.4" y="147.405354" style="stroke: #000000; stroke-width: 0.8"/>
      </g>
     </g>
     <g id="text_9">
      <!-- $\mathdefault{10^{0}}$ -->
      <g transform="translate(26.8 151.204572)scale(0.1 -0.1)">
       <use xlink:href="#DejaVuSans-31" transform="translate(0 0.765625)"/>
       <use xlink:href="#DejaVuSans-30" transform="translate(63.623047 0.765625)"/>
       <use xlink:href="#DejaVuSans-30" transform="translate(128.203125 39.046875)scale(0.7)"/>
      </g>
     </g>
    </g>
    <g id="ytick_4">
     <g id="line2d_9">
      <g>
       <use xlink:href="#m9d3b38568f" x="51.4" y="83.605308" style="stroke: #000000; stroke-width: 0.8"/>
      </g>
     </g>
     <g id="text_10">
      <!-- $\mathdefault{10^{1}}$ -->
      <g transform="translate(26.8 87.404527)scale(0.1 -0.1)">
       <use xlink:href="#DejaVuSans-31" transform="translate(0 0.684375)"/>
       <use xlink:href="#DejaVuSans-30" transform="translate(63.623047 0.684375)"/>
       <use xlink:href="#DejaVuSans-31" transform="translate(128.203125 38.965625)scale(0.7)"/>
      </g>
     </g>
    </g>
    <g id="ytick_5">
     <g id="line2d_10">
      <defs>
       <path id="m8e07a84970" d="M 0 0 
L -2 0 
" style="stroke: #000000; stroke-width: 0.6"/>
      </defs>
      <g>
       <use xlink:href="#m8e07a84970" x="51.4" y="300.394036" style="stroke: #000000; stroke-width: 0.6"/>
      </g>
     </g>
    </g>
    <g id="ytick_6">
     <g id="line2d_11">
      <g>
       <use xlink:href="#m8e07a84970" x="51.4" y="294.211173" style="stroke: #000000; stroke-width: 0.6"/>
      </g>
     </g>
    </g>
    <g id="ytick_7">
     <g id="line2d_12">
      <g>
       <use xlink:href="#m8e07a84970" x="51.4" y="289.159406" style="stroke: #000000; stroke-width: 0.6"/>
      </g>
     </g>
    </g>
    <g id="ytick_8">
     <g id="line2d_13">
      <g>
       <use xlink:href="#m8e07a84970" x="51.4" y="284.888198" style="stroke: #000000; stroke-width: 0.6"/>
      </g>
     </g>
    </g>
    <g id="ytick_9">
     <g id="line2d_14">
      <g>
       <use xlink:href="#m8e07a84970" x="51.4" y="281.188309" style="stroke: #000000; stroke-width: 0.6"/>
      </g>
     </g>
    </g>
    <g id="ytick_10">
     <g id="line2d_15">
      <g>
       <use xlink:href="#m8e07a84970" x="51.4" y="277.924775" style="stroke: #000000; stroke-width: 0.6"/>
      </g>
     </g>
    </g>
    <g id="ytick_11">
     <g id="line2d_16">
      <g>
       <use xlink:href="#m8e07a84970" x="51.4" y="255.799718" style="stroke: #000000; stroke-width: 0.6"/>
      </g>
     </g>
    </g>
    <g id="ytick_12">
     <g id="line2d_17">
      <g>
       <use xlink:href="#m8e07a84970" x="51.4" y="244.565087" style="stroke: #000000; stroke-width: 0.6"/>
      </g>
     </g>
    </g>
    <g id="ytick_13">
     <g id="line2d_18">
      <g>
       <use xlink:href="#m8e07a84970" x="51.4" y="236.59399" style="stroke: #000000; stroke-width: 0.6"/>
      </g>
     </g>
    </g>
    <g id="ytick_14">
     <g id="line2d_19">
      <g>
       <use xlink:href="#m8e07a84970" x="51.4" y="230.411127" style="stroke: #000000; stroke-width: 0.6"/>
      </g>
     </g>
    </g>
    <g id="ytick_15">
     <g id="line2d_20">
      <g>
       <use xlink:href="#m8e07a84970" x="51.4" y="225.35936" style="stroke: #000000; stroke-width: 0.6"/>
      </g>
     </g>
    </g>
    <g id="ytick_16">
     <g id="line2d_21">
      <g>
       <use xlink:href="#m8e07a84970" x="51.4" y="221.088152" style="stroke: #000000; stroke-width: 0.6"/>
      </g>
     </g>
    </g>
    <g id="ytick_17">
     <g id="line2d_22">
      <g>
       <use xlink:href="#m8e07a84970" x="51.4" y="217.388263" style="stroke: #000000; stroke-width: 0.6"/>
      </g>
     </g>
    </g>
    <g id="ytick_18">
     <g id="line2d_23">
      <g>
       <use xlink:href="#m8e07a84970" x="51.4" y="214.12473" style="stroke: #000000; stroke-width: 0.6"/>
      </g>
     </g>
    </g>
    <g id="ytick_19">
     <g id="line2d_24">
      <g>
       <use xlink:href="#m8e07a84970" x="51.4" y="191.999672" style="stroke: #000000; stroke-width: 0.6"/>
      </g>
     </g>
    </g>
    <g id="ytick_20">
     <g id="line2d_25">
      <g>
       <use xlink:href="#m8e07a84970" x="51.4" y="180.765042" style="stroke: #000000; stroke-width: 0.6"/>
      </g>
     </g>
    </g>
    <g id="ytick_21">
     <g id="line2d_26">
      <g>
       <use xlink:href="#m8e07a84970" x="51.4" y="172.793944" style="stroke: #000000; stroke-width: 0.6"/>
      </g>
     </g>
    </g>
    <g id="ytick_22">
     <g id="line2d_27">
      <g>
       <use xlink:href="#m8e07a84970" x="51.4" y="166.611081" style="stroke: #000000; stroke-width: 0.6"/>
      </g>
     </g>
    </g>
    <g id="ytick_23">
     <g id="line2d_28">
      <g>
       <use xlink:href="#m8e07a84970" x="51.4" y="161.559314" style="stroke: #000000; stroke-width: 0.6"/>
      </g>
     </g>
    </g>
    <g id="ytick_24">
     <g id="line2d_29">
      <g>
       <use xlink:href="#m8e07a84970" x="51.4" y="157.288106" style="stroke: #000000; stroke-width: 0.6"/>
      </g>
     </g>
    </g>
    <g id="ytick_25">
     <g id="line2d_30">
      <g>
       <use xlink:href="#m8e07a84970" x="51.4" y="153.588217" style="stroke: #000000; stroke-width: 0.6"/>
      </g>
     </g>
    </g>
    <g id="ytick_26">
     <g id="line2d_31">
      <g>
       <use xlink:href="#m8e07a84970" x="51.4" y="150.324684" style="stroke: #000000; stroke-width: 0.6"/>
      </g>
     </g>
    </g>
    <g id="ytick_27">
     <g id="line2d_32">
      <g>
       <use xlink:href="#m8e07a84970" x="51.4" y="128.199626" style="stroke: #000000; stroke-width: 0.6"/>
      </g>
     </g>
    </g>
    <g id="ytick_28">
     <g id="line2d_33">
      <g>
       <use xlink:href="#m8e07a84970" x="51.4" y="116.964996" style="stroke: #000000; stroke-width: 0.6"/>
      </g>
     </g>
    </g>
    <g id="ytick_29">
     <g id="line2d_34">
      <g>
       <use xlink:href="#m8e07a84970" x="51.4" y="108.993899" style="stroke: #000000; stroke-width: 0.6"/>
      </g>
     </g>
    </g>
    <g id="ytick_30">
     <g id="line2d_35">
      <g>
       <use xlink:href="#m8e07a84970" x="51.4" y="102.811035" style="stroke: #000000; stroke-width: 0.6"/>
      </g>
     </g>
    </g>
    <g id="ytick_31">
     <g id="line2d_36">
      <g>
       <use xlink:href="#m8e07a84970" x="51.4" y="97.759268" style="stroke: #000000; stroke-width: 0.6"/>
      </g>
     </g>
    </g>
    <g id="ytick_32">
     <g id="line2d_37">
      <g>
       <use xlink:href="#m8e07a84970" x="51.4" y="93.48806" style="stroke: #000000; stroke-width: 0.6"/>
      </g>
     </g>
    </g>
    <g id="ytick_33">
     <g id="line2d_38">
      <g>
       <use xlink:href="#m8e07a84970" x="51.4" y="89.788171" style="stroke: #000000; stroke-width: 0.6"/>
      </g>
     </g>
    </g>
    <g id="ytick_34">
     <g id="line2d_39">
      <g>
       <use xlink:href="#m8e07a84970" x="51.4" y="86.524638" style="stroke: #000000; stroke-width: 0.6"/>
      </g>
     </g>
    </g>
    <g id="ytick_35">
     <g id="line2d_40">
      <g>
       <use xlink:href="#m8e07a84970" x="51.4" y="64.39958" style="stroke: #000000; stroke-width: 0.6"/>
      </g>
     </g>
    </g>
    <g id="ytick_36">
     <g id="line2d_41">
      <g>
       <use xlink:href="#m8e07a84970" x="51.4" y="53.16495" style="stroke: #000000; stroke-width: 0.6"/>
      </g>
     </g>
    </g>
    <g id="ytick_37">
     <g id="line2d_42">
      <g>
       <use xlink:href="#m8e07a84970" x="51.4" y="45.193853" style="stroke: #000000; stroke-width: 0.6"/>
      </g>
     </g>
    </g>
    <g id="ytick_38">
     <g id="line2d_43">
      <g>
       <use xlink:href="#m8e07a84970" x="51.4" y="39.010989" style="stroke: #000000; stroke-width: 0.6"/>
      </g>
     </g>
    </g>
    <g id="ytick_39">
     <g id="line2d_44">
      <g>
       <use xlink:href="#m8e07a84970" x="51.4" y="33.959222" style="stroke: #000000; stroke-width: 0.6"/>
      </g>
     </g>
    </g>
    <g id="ytick_40">
     <g id="line2d_45">
      <g>
       <use xlink:href="#m8e07a84970" x="51.4" y="29.688014" style="stroke: #000000; stroke-width: 0.6"/>
      </g>
     </g>
    </g>
    <g id="ytick_41">
     <g id="line2d_46">
      <g>
       <use xlink:href="#m8e07a84970" x="51.4" y="25.988125" style="stroke: #000000; stroke-width: 0.6"/>
      </g>
     </g>
    </g>
    <g id="ytick_42">
     <g id="line2d_47">
      <g>
       <use xlink:href="#m8e07a84970" x="51.4" y="22.724592" style="stroke: #000000; stroke-width: 0.6"/>
      </g>
     </g>
    </g>
    <g id="text_11">
     <!-- Pressure $p$ / bar -->
     <g transform="translate(14.8 201.17)rotate(-90)scale(0.1 -0.1)">
      <defs>
       <path id="DejaVuSans-50" d="M 1259 4147 
L 1259 2394 
L 2053 2394 
Q 2494 2394 2734 2622 
Q 2975 2850 2975 3272 
Q 2975 3691 2734 3919 
Q 2494 4147 2053 4147 
L 1259 4147 
z
M 628 4666 
L 2053 4666 
Q 2838 4666 3239 4311 
Q 3641 3956 3641 3272 
Q 3641 2581 3239 2228 
Q 2838 1875 2053 1875 
L 1259 1875 
L 1259 0 
L 628 0 
L 628 4666 
z
" transform="scale(0.015625)"/>
       <path id="DejaVuSans-72" d="M 2631 2963 
Q 2534 3019 2420 3045 
Q 2306 3072 2169 3072 
Q 1681 3072 1420 2755 
Q 1159 2438 1159 1844 
L 1159 0 
L 581 0 
L 581 3500 
L 1159 3500 
L 1159 2956 
Q 1341 3275 1631 3429 
Q 1922 3584 2338 3584 
Q 2397 3584 2469 3576 
Q 2541 3569 2628 3553 
L 2631 2963 
z
" transform="scale(0.015625)"/>
       <path id="DejaVuSans-73" d="M 2834 3397 
L 2834 2853 
Q 2591 2978 2328 3040 
Q 2066 3103 1784 3103 
Q 1356 3103 1142 2972 
Q 928 2841 928 2578 
Q 928 2378 1081 2264 
Q 1234 2150 1697 2047 
L 1894 2003 
Q 2506 1872 2764 1633 
Q 3022 1394 3022 966 
Q 3022 478 2636 193 
Q 2250 -91 1575 -91 
Q 1294 -91 989 -36 
Q 684 19 347 128 
L 347 722 
Q 666 556 975 473 
Q 1284 391 1588 391 
Q 1994 391 2212 530 
Q 2431 669 2431 922 
Q 2431 1156 2273 1281 
Q 2116 1406 1581 1522 
L 1381 1569 
Q 847 1681 609 1914 
Q 372 2147 372 2553 
Q 372 3047 722 3315 
Q 1072 3584 1716 3584 
Q 2034 3584 2315 3537 
Q 2597 3491 2834 3397 
z
" transform="scale(0.015625)"/>
       <path id="DejaVuSans-75" d="M 544 1381 
L 544 3500 
L 1119 3500 
L 1119 1403 
Q 1119 906 1312 657 
Q 1506 409 1894 409 
Q 2359 409 2629 706 
Q 2900 1003 2900 1516 
L 2900 3500 
L 3475 3500 
L 3475 0 
L 2900 0 
L 2900 538 
Q 2691 219 2414 64 
Q 2138 -91 1772 -91 
Q 1169 -91 856 284 
Q 544 659 544 1381 
z
M 1991 3584 
L 1991 3584 
z
" transform="scale(0.015625)"/>
       <path id="DejaVuSans-Oblique-70" d="M 3175 2156 
Q 3175 2616 2975 2859 
Q 2775 3103 2400 3103 
Q 2144 3103 1911 2972 
Q 1678 2841 1497 2591 
Q 1319 2344 1212 1994 
Q 1106 1644 1106 1300 
Q 1106 863 1306 627 
Q 1506 391 1875 391 
Q 2147 391 2380 519 
Q 2613 647 2778 891 
Q 2956 1147 3065 1494 
Q 3175 1841 3175 2156 
z
M 1394 2969 
Q 1625 3272 1939 3428 
Q 2253 3584 2638 3584 
Q 3175 3584 3472 3232 
Q 3769 2881 3769 2247 
Q 3769 1728 3584 1258 
Q 3400 788 3053 416 
Q 2822 169 2531 39 
Q 2241 -91 1919 -91 
Q 1547 -91 1294 64 
Q 1041 219 916 525 
L 556 -1331 
L -19 -1331 
L 922 3500 
L 1497 3500 
L 1394 2969 
z
" transform="scale(0.015625)"/>
       <path id="DejaVuSans-62" d="M 3116 1747 
Q 3116 2381 2855 2742 
Q 2594 3103 2138 3103 
Q 1681 3103 1420 2742 
Q 1159 2381 1159 1747 
Q 1159 1113 1420 752 
Q 1681 391 2138 391 
Q 2594 391 2855 752 
Q 3116 1113 3116 1747 
z
M 1159 2969 
Q 1341 3281 1617 3432 
Q 1894 3584 2278 3584 
Q 2916 3584 3314 3078 
Q 3713 2572 3713 1747 
Q 3713 922 3314 415 
Q 2916 -91 2278 -91 
Q 1894 -91 1617 61 
Q 1341 213 1159 525 
L 1159 0 
L 581 0 
L 581 4863 
L 1159 4863 
L 1159 2969 
z
" transform="scale(0.015625)"/>
      </defs>
      <use xlink:href="#DejaVuSans-50" transform="translate(0 0.015625)"/>
      <use xlink:href="#DejaVuSans-72" transform="translate(60.302734 0.015625)"/>
      <use xlink:href="#DejaVuSans-65" transform="translate(101.416016 0.015625)"/>
      <use xlink:href="#DejaVuSans-73" transform="translate(162.939453 0.015625)"/>
      <use xlink:href="#DejaVuSans-73" transform="translate(215.039062 0.015625)"/>
      <use xlink:href="#DejaVuSans-75" transform="translate(267.138672 0.015625)"/>
      <use xlink:href="#DejaVuSans-72" transform="translate(330.517578 0.015625)"/>
      <use xlink:href="#DejaVuSans-65" transform="translate(371.630859 0.015625)"/>
      <use xlink:href="#DejaVuSans-20" transform="translate(433.154297 0.015625)"/>
      <use xlink:href="#DejaVuSans-Oblique-70" transform="translate(464.941406 0.015625)"/>
      <use xlink:href="#DejaVuSans-20" transform="translate(528.417969 0.015625)"/>
      <use xlink:href="#DejaVuSans-2f" transform="translate(560.205078 0.015625)"/>
      <use xlink:href="#DejaVuSans-20" transform="translate(593.896484 0.015625)"/>
      <use xlink:href="#DejaVuSans-62" transform="translate(625.683594 0.015625)"/>
      <use xlink:href="#DejaVuSans-61" transform="translate(689.160156 0.015625)"/>
      <use xlink:href="#DejaVuSans-72" transform="translate(750.439453 0.015625)"/>
     </g>
    </g>
   </g>
   <g id="line2d_48">
    <path d="M 446.4 300.821875 
L 454.6 300.260913 
L 454.6 300.260913 
" clip-path="url(#p0a7314f21c)" style="fill: none; stroke: #00008b; stroke-width: 0.25; stroke-linecap: square"/>
   </g>
   <g id="line2d_49">
    <path d="M 266.39854 300.821875 
L 274.788284 298.584897 
L 284.364859 296.347919 
L 295.296356 294.110941 
L 307.774012 291.873963 
L 322.015768 289.636985 
L 338.270172 287.400008 
L 356.820763 285.16303 
L 377.991036 282.926052 
L 402.150109 280.689074 
L 429.719179 278.452096 
L 454.6 276.667978 
L 454.6 276.667978 
" clip-path="url(#p0a7314f21c)" style="fill: none; stroke: #00008b; stroke-width: 0.25; stroke-linecap: square"/>
   </g>
   <g id="line2d_50">
    <path d="M 148.181768 300.821875 
L 156.752672 298.584897 
L 165.939636 296.347919 
L 175.789379 294.110941 
L 186.352152 291.873963 
L 197.681993 289.636985 
L 209.837015 287.400008 
L 222.879706 285.16303 
L 236.877257 282.926052 
L 258.74137 279.570585 
L 266.053294 277.333607 
L 274.393122 275.096629 
L 283.910715 272.859651 
L 294.774173 270.622673 
L 307.173996 268.385695 
L 321.326963 266.148717 
L 337.480157 263.911739 
L 355.915384 261.674762 
L 376.954137 259.437784 
L 400.963239 257.200806 
L 428.361263 254.963828 
L 454.6 253.074966 
L 454.6 253.074966 
" clip-path="url(#p0a7314f21c)" style="fill: none; stroke: #00008b; stroke-width: 0.25; stroke-linecap: square"/>
   </g>
   <g id="line2d_51">
    <path d="M 89.972412 300.821875 
L 96.140117 297.466408 
L 102.930772 294.110941 
L 110.415773 290.755474 
L 118.674726 287.400008 
L 127.796378 284.044541 
L 137.879654 280.689074 
L 145.190018 278.452096 
L 153.012245 276.215118 
L 161.384736 273.97814 
L 170.348763 271.741162 
L 179.948685 269.504184 
L 190.232168 267.267206 
L 201.250434 265.030228 
L 213.058524 262.793251 
L 225.715572 260.556273 
L 239.285111 258.319295 
L 253.835394 256.082317 
L 261.501019 254.963828 
L 278.604747 250.489872 
L 288.709623 248.252894 
L 300.242622 246.015916 
L 313.406326 243.778938 
L 328.430983 241.54196 
L 345.578914 239.304982 
L 365.149255 237.068005 
L 387.483259 234.831027 
L 412.970293 232.594049 
L 442.054666 230.357071 
L 454.6 229.482648 
L 454.6 229.482648 
" clip-path="url(#p0a7314f21c)" style="fill: none; stroke: #00008b; stroke-width: 0.25; stroke-linecap: square"/>
   </g>
   <g id="line2d_52">
    <path d="M 65.129808 300.821875 
L 68.345546 297.466408 
L 71.836157 294.110941 
L 75.63238 290.755474 
L 79.768462 287.400008 
L 84.282566 284.044541 
L 89.217206 280.689074 
L 94.619745 277.333607 
L 100.542942 273.97814 
L 107.045558 270.622673 
L 114.193038 267.267206 
L 122.058259 263.911739 
L 130.722364 260.556273 
L 140.27569 257.200806 
L 150.818798 253.845339 
L 162.46361 250.489872 
L 170.899823 248.252894 
L 179.921062 246.015916 
L 189.570606 243.778938 
L 199.894922 241.54196 
L 210.943897 239.304982 
L 222.771085 237.068005 
L 235.433971 234.831027 
L 248.994257 232.594049 
L 263.518166 230.357071 
L 269.483006 229.238582 
L 278.289639 227.001604 
L 288.331024 224.764626 
L 299.789124 222.527648 
L 312.866871 220.29067 
L 327.793726 218.053692 
L 344.830596 215.816714 
L 364.274782 213.579736 
L 386.465349 211.342759 
L 411.789127 209.105781 
L 440.687519 206.868803 
L 454.6 205.892853 
L 454.6 205.892853 
" clip-path="url(#p0a7314f21c)" style="fill: none; stroke: #00008b; stroke-width: 0.25; stroke-linecap: square"/>
   </g>
   <g id="line2d_53">
    <path d="M 54.527475 300.821875 
L 57.162777 296.347919 
L 60.030463 291.873963 
L 63.164037 287.400008 
L 66.602129 282.926052 
L 70.389284 278.452096 
L 73.489336 275.096629 
L 76.838986 271.741162 
L 80.465516 268.385695 
L 84.399282 265.030228 
L 88.674057 261.674762 
L 93.327418 258.319295 
L 98.401163 254.963828 
L 103.941792 251.608361 
L 110.001019 248.252894 
L 116.636363 244.897427 
L 123.911784 241.54196 
L 131.898399 238.186493 
L 140.675276 234.831027 
L 150.330306 231.47556 
L 160.961183 228.120093 
L 172.676474 224.764626 
L 185.59682 221.409159 
L 199.856255 218.053692 
L 210.179352 215.816714 
L 221.211552 213.579736 
L 233.004456 211.342759 
L 245.613398 209.105781 
L 259.097713 206.868803 
L 273.521025 204.631825 
L 282.970295 202.394847 
L 293.623902 200.157869 
L 305.779546 197.920891 
L 319.65375 195.683913 
L 335.490456 193.446935 
L 353.566627 191.209957 
L 374.197686 188.972979 
L 397.743295 186.736002 
L 424.613767 184.499024 
L 454.6 182.309879 
L 454.6 182.309879 
" clip-path="url(#p0a7314f21c)" style="fill: none; stroke: #00008b; stroke-width: 0.25; stroke-linecap: square"/>
   </g>
   <g id="line2d_54">
    <path d="M 50.002609 300.821875 
L 52.901974 294.110941 
L 55.526906 288.518496 
L 58.375361 282.926052 
L 61.485233 277.333607 
L 64.19138 272.859651 
L 67.120507 268.385695 
L 70.303638 263.911739 
L 73.776453 259.437784 
L 77.579994 254.963828 
L 80.677834 251.608361 
L 84.010612 248.252894 
L 87.603312 244.897427 
L 91.483682 241.54196 
L 95.682545 238.186493 
L 100.234136 234.831027 
L 105.176475 231.47556 
L 110.551783 228.120093 
L 116.406947 224.764626 
L 122.794027 221.409159 
L 129.770823 218.053692 
L 137.401502 214.698225 
L 145.757292 211.342759 
L 154.91725 207.987292 
L 164.969113 204.631825 
L 176.010243 201.276358 
L 188.148665 197.920891 
L 201.504225 194.565424 
L 216.20987 191.209957 
L 232.413058 187.85449 
L 250.277328 184.499024 
L 263.19843 182.262046 
L 283.184779 178.906579 
L 293.759212 176.669601 
L 305.818162 174.432623 
L 319.581478 172.195645 
L 335.293427 169.958667 
L 353.229757 167.721689 
L 373.703765 165.484711 
L 397.072346 163.247733 
L 423.742502 161.010756 
L 454.6 158.745711 
L 454.6 158.745711 
" clip-path="url(#p0a7314f21c)" style="fill: none; stroke: #00008b; stroke-width: 0.25; stroke-linecap: square"/>
   </g>
   <g id="line2d_55">
    <path d="M 48.071486 300.821875 
L 51.322571 291.873963 
L 54.403548 284.044541 
L 57.255313 277.333607 
L 60.338683 270.622673 
L 63.696693 263.911739 
L 66.742482 258.319295 
L 70.051998 252.72685 
L 73.668672 247.134405 
L 76.817467 242.660449 
L 80.226334 238.186493 
L 83.930495 233.712538 
L 87.970345 229.238582 
L 92.392224 224.764626 
L 95.991036 221.409159 
L 99.859745 218.053692 
L 104.02636 214.698225 
L 108.521926 211.342759 
L 113.380857 207.987292 
L 118.641302 204.631825 
L 124.345543 201.276358 
L 130.540447 197.920891 
L 137.277959 194.565424 
L 144.615647 191.209957 
L 152.617309 187.85449 
L 161.353644 184.499024 
L 170.90299 181.143557 
L 181.352151 177.78809 
L 192.7973 174.432623 
L 205.34499 171.077156 
L 219.113263 167.721689 
L 234.232893 164.366222 
L 250.848745 161.010756 
L 269.121298 157.655289 
L 294.752494 153.181333 
L 306.691961 150.944355 
L 320.317293 148.707377 
L 335.874328 146.470399 
L 353.638011 144.233421 
L 373.919383 141.996443 
L 397.072038 139.759465 
L 423.498836 137.522487 
L 454.6 135.22228 
L 454.6 135.22228 
" clip-path="url(#p0a7314f21c)" style="fill: none; stroke: #00008b; stroke-width: 0.25; stroke-linecap: square"/>
   </g>
   <g id="line2d_56">
    <path d="M 47.24732 300.821875 
L 50.594199 290.755474 
L 54.188446 280.689074 
L 57.632698 271.741162 
L 60.87698 263.911739 
L 64.377743 256.082317 
L 67.619742 249.371383 
L 71.124663 242.660449 
L 74.279551 237.068005 
L 77.68133 231.47556 
L 81.367918 225.883115 
L 84.552048 221.409159 
L 87.973483 216.935203 
L 91.66256 212.461247 
L 95.653945 207.987292 
L 99.987267 203.513336 
L 104.707833 199.03938 
L 108.533286 195.683913 
L 112.630116 192.328446 
L 117.025488 188.972979 
L 121.749451 185.617513 
L 126.835242 182.262046 
L 132.319633 178.906579 
L 138.2433 175.551112 
L 144.651249 172.195645 
L 151.593268 168.840178 
L 159.124448 165.484711 
L 167.305744 162.129244 
L 176.204603 158.773778 
L 185.895662 155.418311 
L 196.461518 152.062844 
L 207.99359 148.707377 
L 220.593063 145.35191 
L 234.371957 141.996443 
L 249.454298 138.640976 
L 265.977436 135.28551 
L 284.093516 131.930043 
L 322.818281 125.219109 
L 338.16751 122.982131 
L 355.696658 120.745153 
L 375.714078 118.508175 
L 398.569155 116.271197 
L 424.659102 114.034219 
L 454.6 111.786103 
L 454.6 111.786103 
" clip-path="url(#p0a7314f21c)" style="fill: none; stroke: #00008b; stroke-width: 0.25; stroke-linecap: square"/>
   </g>
   <g id="line2d_57">
    <path d="M 46.895583 300.821875 
L 50.469282 289.636985 
L 54.283424 278.452096 
L 57.957077 268.385695 
L 61.447344 259.437784 
L 65.185793 250.489872 
L 68.695086 242.660449 
L 72.464987 234.831027 
L 75.937868 228.120093 
L 79.670114 221.409159 
L 83.008348 215.816714 
L 86.584227 210.22427 
L 90.431295 204.631825 
L 94.58886 199.03938 
L 98.169196 194.565424 
L 102.004853 190.091468 
L 106.126826 185.617513 
L 110.570402 181.143557 
L 115.37576 176.669601 
L 120.58868 172.195645 
L 124.796951 168.840178 
L 129.288335 165.484711 
L 134.090048 162.129244 
L 139.232132 158.773778 
L 144.74775 155.418311 
L 150.673524 152.062844 
L 157.0499 148.707377 
L 163.921556 145.35191 
L 171.337861 141.996443 
L 179.353377 138.640976 
L 188.028427 135.28551 
L 197.429721 131.930043 
L 207.631061 128.574576 
L 218.71413 125.219109 
L 230.769377 121.863642 
L 243.897016 118.508175 
L 258.208149 115.152708 
L 273.826054 111.797241 
L 290.887634 108.441775 
L 309.545099 105.086308 
L 322.079553 102.84933 
L 336.198554 100.612352 
L 352.304924 98.375374 
L 370.684728 96.138396 
L 391.660416 93.901418 
L 415.596956 91.66444 
L 442.908495 89.427462 
L 454.6 88.5595 
L 454.6 88.5595 
" clip-path="url(#p0a7314f21c)" style="fill: none; stroke: #00008b; stroke-width: 0.25; stroke-linecap: square"/>
   </g>
   <g id="line2d_58">
    <path d="M 46.745468 300.821875 
L 50.612766 288.518496 
L 54.350814 277.333607 
L 58.331589 266.148717 
L 62.152359 256.082317 
L 65.765732 247.134405 
L 69.613234 238.186493 
L 73.199248 230.357071 
L 77.019752 222.527648 
L 81.109119 214.698225 
L 84.859645 207.987292 
L 88.869668 201.276358 
L 93.17661 194.565424 
L 97.024476 188.972979 
L 101.13972 183.380535 
L 105.557623 177.78809 
L 109.337236 173.314134 
L 113.360812 168.840178 
L 117.655626 164.366222 
L 122.252565 159.892267 
L 127.186634 155.418311 
L 132.49753 150.944355 
L 138.23031 146.470399 
L 144.436154 141.996443 
L 149.435689 138.640976 
L 154.76133 135.28551 
L 160.443325 131.930043 
L 166.51503 128.574576 
L 173.013245 125.219109 
L 179.978596 121.863642 
L 187.455964 118.508175 
L 195.494967 115.152708 
L 204.150513 111.797241 
L 213.483419 108.441775 
L 223.561131 105.086308 
L 234.458546 101.730841 
L 246.25897 98.375374 
L 259.055247 95.019907 
L 272.951085 91.66444 
L 288.062672 88.308973 
L 304.520641 84.953507 
L 322.437188 81.59804 
L 334.680524 79.361062 
L 348.558605 77.124084 
L 364.316021 74.887106 
L 382.225517 72.650128 
L 402.594962 70.41315 
L 425.772839 68.176172 
L 454.6 65.7509 
L 454.6 65.7509 
" clip-path="url(#p0a7314f21c)" style="fill: none; stroke: #00008b; stroke-width: 0.25; stroke-linecap: square"/>
   </g>
   <g id="line2d_59">
    <path d="M 46.681402 300.821875 
L 50.516108 288.518496 
L 54.591765 276.215118 
L 58.53317 265.030228 
L 62.297462 254.963828 
L 66.293339 244.897427 
L 70.063722 235.949516 
L 74.06565 227.001604 
L 78.32881 218.053692 
L 82.301142 210.22427 
L 86.528952 202.394847 
L 90.381456 195.683913 
L 94.471166 188.972979 
L 98.827147 182.262046 
L 103.483448 175.551112 
L 107.621779 169.958667 
L 112.023246 164.366222 
L 116.718794 158.773778 
L 121.744082 153.181333 
L 126.029185 148.707377 
L 130.575559 144.233421 
L 135.410217 139.759465 
L 140.56359 135.28551 
L 146.070001 130.811554 
L 151.968219 126.337598 
L 158.302094 121.863642 
L 165.121296 117.389686 
L 170.587818 114.034219 
L 176.38545 110.678753 
L 182.543477 107.323286 
L 189.094217 103.967819 
L 196.073397 100.612352 
L 203.520574 97.256885 
L 211.479645 93.901418 
L 219.999436 90.545951 
L 229.134425 87.190484 
L 238.945617 83.835018 
L 249.501653 80.479551 
L 260.880225 77.124084 
L 273.169982 73.768617 
L 286.473161 70.41315 
L 300.909471 67.057683 
L 316.622112 63.702216 
L 349.841867 56.991283 
L 362.725525 54.754305 
L 377.187372 52.517327 
L 393.448796 50.280349 
L 411.760961 48.043371 
L 432.409461 45.806393 
L 454.6 43.673644 
L 454.6 43.673644 
" clip-path="url(#p0a7314f21c)" style="fill: none; stroke: #00008b; stroke-width: 0.25; stroke-linecap: square"/>
   </g>
   <g id="line2d_60">
    <path d="M 46.65406 300.821875 
L 50.474857 288.518496 
L 54.529604 276.215118 
L 58.443031 265.030228 
L 62.598954 253.845339 
L 66.570842 243.778938 
L 70.787905 233.712538 
L 74.765656 224.764626 
L 78.983831 215.816714 
L 83.470045 206.868803 
L 87.640607 199.03938 
L 92.066196 191.209957 
L 96.776002 183.380535 
L 101.064826 176.669601 
L 105.612142 169.958667 
L 110.446438 163.247733 
L 114.717802 157.655289 
L 119.232924 152.062844 
L 124.016425 146.470399 
L 129.096264 140.877954 
L 134.504274 135.28551 
L 140.276789 129.693065 
L 145.184988 125.219109 
L 150.377032 120.745153 
L 155.879839 116.271197 
L 161.723569 111.797241 
L 167.942092 107.323286 
L 174.573533 102.84933 
L 181.66092 98.375374 
L 189.252968 93.901418 
L 197.405041 89.427462 
L 203.924303 86.071995 
L 210.823995 82.716529 
L 218.137598 79.361062 
L 225.902619 76.005595 
L 234.161395 72.650128 
L 242.962208 69.294661 
L 252.36095 65.939194 
L 262.423812 62.583727 
L 273.231996 59.228261 
L 284.891025 55.872794 
L 297.552647 52.517327 
L 306.672982 50.280349 
L 321.229886 46.924882 
L 328.324458 44.687904 
L 336.042522 42.450926 
L 344.464079 40.213948 
L 353.67868 37.97697 
L 363.786033 35.739992 
L 374.897207 33.503015 
L 387.136415 31.266037 
L 400.643283 29.029059 
L 415.575511 26.792081 
L 432.11189 24.555103 
L 450.455651 22.318125 
L 450.455651 22.318125 
" clip-path="url(#p0a7314f21c)" style="fill: none; stroke: #00008b; stroke-width: 0.25; stroke-linecap: square"/>
   </g>
   <g id="line2d_61">
    <path d="M 46.642391 300.821875 
L 50.457251 288.518496 
L 54.503075 276.215118 
L 58.404562 265.030228 
L 62.543236 253.845339 
L 66.493157 243.778938 
L 70.679708 233.712538 
L 74.620544 224.764626 
L 78.789388 215.816714 
L 83.20975 206.868803 
L 87.304905 199.03938 
L 91.633579 191.209957 
L 96.218934 183.380535 
L 101.087303 175.551112 
L 105.508119 168.840178 
L 110.180345 162.129244 
L 115.128189 155.418311 
L 120.379029 148.707377 
L 125.008476 143.114932 
L 129.890067 137.522487 
L 135.046396 131.930043 
L 140.502749 126.337598 
L 146.287503 120.745153 
L 152.432586 115.152708 
L 158.974011 109.560264 
L 164.519725 105.086308 
L 170.368432 100.612352 
L 176.546041 96.138396 
L 183.081358 91.66444 
L 190.006504 87.190484 
L 197.357412 82.716529 
L 205.174439 78.242573 
L 213.503149 73.768617 
L 222.395394 69.294661 
L 231.911013 64.820705 
L 239.499002 61.465238 
L 247.513622 58.109772 
L 256.001161 54.754305 
L 265.029059 51.398838 
L 274.73202 48.043371 
L 281.786954 45.806393 
L 286.021421 42.450926 
L 290.60334 39.095459 
L 295.605938 35.739992 
L 301.10743 32.384526 
L 307.193246 29.029059 
L 313.958173 25.673592 
L 318.897392 23.436614 
L 321.508591 22.318125 
L 321.508591 22.318125 
" clip-path="url(#p0a7314f21c)" style="fill: none; stroke: #00008b; stroke-width: 0.25; stroke-linecap: square"/>
   </g>
   <g id="line2d_62">
    <path d="M 44.341897 300.821875 
L 44.451837 137.522487 
L 44.682978 106.204797 
L 45.019705 87.190484 
L 45.487755 72.650128 
L 46.057947 61.465238 
L 46.712496 52.517327 
L 47.487182 44.687904 
L 48.349976 37.97697 
L 49.44972 31.266037 
L 50.593766 25.673592 
L 51.4 22.318125 
L 51.4 22.318125 
" clip-path="url(#p0a7314f21c)" style="fill: none; stroke: #00008b; stroke-width: 0.25; stroke-linecap: square"/>
   </g>
   <g id="line2d_63">
    <path d="M 46.874347 300.821875 
L 47.015241 118.508175 
L 47.276772 89.427462 
L 47.641908 71.531639 
L 48.11997 58.109772 
L 48.738862 46.924882 
L 49.448668 37.97697 
L 50.287853 30.147548 
L 51.221332 23.436614 
L 51.4 22.318125 
L 51.4 22.318125 
" clip-path="url(#p0a7314f21c)" style="fill: none; stroke: #ff8c00; stroke-width: 0.25; stroke-linecap: square"/>
   </g>
   <g id="line2d_64">
    <path d="M 69.370079 300.821875 
L 70.266292 277.333607 
L 70.806972 257.200806 
L 71.044744 240.423471 
L 71.07528 220.29067 
L 71.196857 122.982131 
L 71.444171 92.782929 
L 71.811496 73.768617 
L 72.272285 60.346749 
L 72.86874 49.16186 
L 73.552709 40.213948 
L 74.361209 32.384526 
L 75.260379 25.673592 
L 75.798056 22.318125 
L 75.798056 22.318125 
" clip-path="url(#p0a7314f21c)" style="fill: none; stroke: #ff8c00; stroke-width: 0.25; stroke-linecap: square"/>
   </g>
   <g id="line2d_65">
    <path d="M 91.865812 300.821875 
L 94.438569 269.504184 
L 96.156612 246.015916 
L 97.341135 227.001604 
L 98.169481 210.22427 
L 98.666903 195.683913 
L 98.881505 183.380535 
L 98.915495 164.366222 
L 99.083817 111.797241 
L 99.366961 87.190484 
L 99.767071 70.41315 
L 100.259107 58.109772 
L 100.859691 48.043371 
L 101.610338 39.095459 
L 102.497264 31.266037 
L 103.483173 24.555103 
L 103.868127 22.318125 
L 103.868127 22.318125 
" clip-path="url(#p0a7314f21c)" style="fill: none; stroke: #ff8c00; stroke-width: 0.25; stroke-linecap: square"/>
   </g>
   <g id="line2d_66">
    <path d="M 114.361545 300.821875 
L 122.010382 240.423471 
L 125.044526 214.698225 
L 127.078183 195.683913 
L 128.541941 180.025068 
L 129.581514 166.6032 
L 130.246097 155.418311 
L 130.644352 145.35191 
L 130.802224 136.403998 
L 131.089063 96.138396 
L 131.456308 77.124084 
L 131.916757 63.702216 
L 132.512379 52.517327 
L 133.194864 43.569415 
L 134.0009 35.739992 
L 134.896458 29.029059 
L 136.034733 22.318125 
L 136.034733 22.318125 
" clip-path="url(#p0a7314f21c)" style="fill: none; stroke: #ff8c00; stroke-width: 0.25; stroke-linecap: square"/>
   </g>
   <g id="line2d_67">
    <path d="M 136.857278 300.821875 
L 142.89864 266.148717 
L 159.845703 169.958667 
L 162.267621 154.299822 
L 163.969268 141.996443 
L 165.299838 130.811554 
L 166.263919 120.745153 
L 166.883562 111.797241 
L 167.198979 103.967819 
L 168.171669 64.820705 
L 168.795596 53.635816 
L 169.509712 44.687904 
L 170.352059 36.858481 
L 171.286704 30.147548 
L 172.255081 24.555103 
L 172.699456 22.318125 
L 172.699456 22.318125 
" clip-path="url(#p0a7314f21c)" style="fill: none; stroke: #ff8c00; stroke-width: 0.25; stroke-linecap: square"/>
   </g>
   <g id="line2d_68">
    <path d="M 159.353011 300.821875 
L 164.480639 277.333607 
L 170.086119 252.72685 
L 175.920426 228.120093 
L 182.785204 200.157869 
L 198.003918 138.640976 
L 201.297527 124.10062 
L 203.611636 112.91573 
L 205.457628 102.84933 
L 206.687888 95.019907 
L 207.690116 87.190484 
L 208.327816 80.479551 
L 208.720593 73.768617 
L 209.298622 61.465238 
L 210.000913 51.398838 
L 210.749301 43.569415 
L 211.577505 36.858481 
L 212.625616 30.147548 
L 213.707606 24.555103 
L 214.202885 22.318125 
L 214.202885 22.318125 
" clip-path="url(#p0a7314f21c)" style="fill: none; stroke: #ff8c00; stroke-width: 0.25; stroke-linecap: square"/>
   </g>
   <g id="line2d_69">
    <path d="M 181.848744 300.821875 
L 187.129946 280.689074 
L 192.348371 261.674762 
L 197.80148 242.660449 
L 203.496599 223.646137 
L 209.435174 204.631825 
L 215.608132 185.617513 
L 222.750304 164.366222 
L 234.319896 130.811554 
L 241.145153 110.678753 
L 245.101502 98.375374 
L 248.115853 88.308973 
L 250.548986 79.361062 
L 252.422466 71.531639 
L 253.78731 64.820705 
L 254.719204 59.228261 
L 255.432979 53.635816 
L 256.444675 44.687904 
L 257.420553 37.97697 
L 258.636708 31.266037 
L 259.875379 25.673592 
L 260.734677 22.318125 
L 260.734677 22.318125 
" clip-path="url(#p0a7314f21c)" style="fill: none; stroke: #ff8c00; stroke-width: 0.25; stroke-linecap: square"/>
   </g>
   <g id="line2d_70">
    <path d="M 204.344476 300.821875 
L 209.47202 284.044541 
L 214.834093 267.267206 
L 220.064533 251.608361 
L 225.526688 235.949516 
L 231.233561 220.29067 
L 236.762223 205.750314 
L 242.519393 191.209957 
L 248.508826 176.669601 
L 254.728309 162.129244 
L 261.66973 146.470399 
L 269.867352 128.574576 
L 293.665611 77.124084 
L 297.442182 68.176172 
L 300.506296 60.346749 
L 302.891741 53.635816 
L 304.662852 48.043371 
L 306.196351 42.450926 
L 308.935112 32.384526 
L 311.003039 25.673592 
L 312.155473 22.318125 
L 312.155473 22.318125 
" clip-path="url(#p0a7314f21c)" style="fill: none; stroke: #ff8c00; stroke-width: 0.25; stroke-linecap: square"/>
   </g>
   <g id="line2d_71">
    <path d="M 226.840209 300.821875 
L 232.311027 285.16303 
L 237.6203 270.622673 
L 243.166661 256.082317 
L 248.511602 242.660449 
L 254.087392 229.238582 
L 259.908857 215.816714 
L 265.473885 203.513336 
L 271.269406 191.209957 
L 277.306052 178.906579 
L 283.59286 166.6032 
L 290.136849 154.299822 
L 296.325823 143.114932 
L 303.393152 130.811554 
L 311.384276 117.389686 
L 320.314663 102.84933 
L 335.064767 79.361062 
L 344.793248 63.702216 
L 350.819398 53.635816 
L 355.938351 44.687904 
L 361.422686 34.621504 
L 368.021042 22.318125 
L 368.021042 22.318125 
" clip-path="url(#p0a7314f21c)" style="fill: none; stroke: #ff8c00; stroke-width: 0.25; stroke-linecap: square"/>
   </g>
   <g id="line2d_72">
    <path d="M 249.335942 300.821875 
L 255.04881 286.281519 
L 260.569185 272.859651 
L 265.43204 261.674762 
L 270.554233 250.489872 
L 275.940156 239.304982 
L 281.593947 228.120093 
L 287.519424 216.935203 
L 293.719999 205.750314 
L 300.198552 194.565424 
L 306.957252 183.380535 
L 313.99731 172.195645 
L 321.318639 161.010756 
L 328.919379 149.825866 
L 336.79524 138.640976 
L 344.938601 127.456087 
L 354.190542 115.152708 
L 363.726219 102.84933 
L 374.407564 89.427462 
L 388.05695 72.650128 
L 418.191189 35.739992 
L 428.969464 22.318125 
L 428.969464 22.318125 
" clip-path="url(#p0a7314f21c)" style="fill: none; stroke: #ff8c00; stroke-width: 0.25; stroke-linecap: square"/>
   </g>
   <g id="line2d_73">
    <path d="M 273.757032 300.821875 
L 279.309873 289.636985 
L 285.135754 278.452096 
L 291.239234 267.267206 
L 296.973396 257.200806 
L 302.939181 247.134405 
L 309.139652 237.068005 
L 315.577752 227.001604 
L 322.256282 216.935203 
L 329.177857 206.868803 
L 336.344859 196.802402 
L 343.75937 186.736002 
L 352.29004 175.551112 
L 361.129905 164.366222 
L 370.279455 153.181333 
L 379.737731 141.996443 
L 389.5018 130.811554 
L 399.566058 119.626664 
L 409.921304 108.441775 
L 421.63131 96.138396 
L 433.649032 83.835018 
L 447.064492 70.41315 
L 454.6 62.988039 
L 454.6 62.988039 
" clip-path="url(#p0a7314f21c)" style="fill: none; stroke: #ff8c00; stroke-width: 0.25; stroke-linecap: square"/>
   </g>
   <g id="line2d_74">
    <path d="M 304.9614 300.821875 
L 311.243736 290.755474 
L 317.765983 280.689074 
L 324.531322 270.622673 
L 331.542885 260.556273 
L 338.803746 250.489872 
L 346.316911 240.423471 
L 354.085309 230.357071 
L 362.111772 220.29067 
L 370.399016 210.22427 
L 378.949608 200.157869 
L 387.765928 190.091468 
L 396.850115 180.025068 
L 407.260031 168.840178 
L 418.004802 157.655289 
L 429.085509 146.470399 
L 440.502119 135.28551 
L 452.253118 124.10062 
L 454.6 121.904 
L 454.6 121.904 
" clip-path="url(#p0a7314f21c)" style="fill: none; stroke: #ff8c00; stroke-width: 0.25; stroke-linecap: square"/>
   </g>
   <g id="line2d_75">
    <path d="M 343.752493 300.821875 
L 351.436767 290.755474 
L 359.379023 280.689074 
L 367.582307 270.622673 
L 376.049625 260.556273 
L 384.78394 250.489872 
L 393.788164 240.423471 
L 403.065154 230.357071 
L 412.617697 220.29067 
L 422.4485 210.22427 
L 432.560167 200.157869 
L 444.127774 188.972979 
L 454.6 179.129752 
L 454.6 179.129752 
" clip-path="url(#p0a7314f21c)" style="fill: none; stroke: #ff8c00; stroke-width: 0.25; stroke-linecap: square"/>
   </g>
   <g id="line2d_76">
    <path d="M 390.713716 300.821875 
L 399.899716 290.755474 
L 409.360899 280.689074 
L 419.100189 270.622673 
L 429.120478 260.556273 
L 439.424624 250.489872 
L 451.210026 239.304982 
L 454.6 236.149243 
L 454.6 236.149243 
" clip-path="url(#p0a7314f21c)" style="fill: none; stroke: #ff8c00; stroke-width: 0.25; stroke-linecap: square"/>
   </g>
   <g id="line2d_77">
    <path d="M 446.4 300.821875 
L 454.6 293.142525 
L 454.6 293.142525 
" clip-path="url(#p0a7314f21c)" style="fill: none; stroke: #ff8c00; stroke-width: 0.25; stroke-linecap: square"/>
   </g>
   <g id="line2d_78">
    <path d="M 255.424433 300.821875 
L 255.413401 296.347919 
L 48.133873 295.22943 
L 48.243125 116.271197 
L 48.472674 84.953507 
L 48.835168 64.820705 
L 49.320241 50.280349 
L 49.91212 39.095459 
L 50.592792 30.147548 
L 51.4 22.318125 
L 51.4 22.318125 
" clip-path="url(#p0a7314f21c)" style="fill: none; stroke: #8b0000; stroke-width: 0.25; stroke-linecap: square"/>
   </g>
   <g id="line2d_79">
    <path d="M 265.163864 300.821875 
L 264.996331 248.252894 
L 264.951861 242.660449 
L 67.14512 241.54196 
L 67.257942 114.034219 
L 67.497156 82.716529 
L 67.846282 63.702216 
L 68.332784 49.16186 
L 68.92729 37.97697 
L 69.612112 29.029059 
L 70.294702 22.318125 
L 70.294702 22.318125 
" clip-path="url(#p0a7314f21c)" style="fill: none; stroke: #8b0000; stroke-width: 0.25; stroke-linecap: square"/>
   </g>
   <g id="line2d_80">
    <path d="M 275.563299 300.821875 
L 275.41243 238.186493 
L 275.151272 212.461247 
L 274.93186 201.276358 
L 86.471346 200.157869 
L 86.597959 108.441775 
L 86.84249 79.361062 
L 87.215008 60.346749 
L 87.684926 46.924882 
L 88.297337 35.739992 
L 89.005071 26.792081 
L 89.457021 22.318125 
L 89.457021 22.318125 
" clip-path="url(#p0a7314f21c)" style="fill: none; stroke: #8b0000; stroke-width: 0.25; stroke-linecap: square"/>
   </g>
   <g id="line2d_81">
    <path d="M 286.612189 300.821875 
L 286.470158 230.357071 
L 286.216012 203.513336 
L 285.837783 185.617513 
L 285.380204 173.314134 
L 285.085497 167.721689 
L 106.258008 166.6032 
L 106.402213 100.612352 
L 106.663386 73.768617 
L 107.048627 55.872794 
L 107.55865 42.450926 
L 108.147624 32.384526 
L 108.894383 23.436614 
L 109.006723 22.318125 
L 109.006723 22.318125 
" clip-path="url(#p0a7314f21c)" style="fill: none; stroke: #8b0000; stroke-width: 0.25; stroke-linecap: square"/>
   </g>
   <g id="line2d_82">
    <path d="M 298.292254 300.821875 
L 298.159929 224.764626 
L 297.911803 196.802402 
L 297.553323 178.906579 
L 297.075205 165.484711 
L 296.515301 155.418311 
L 295.787954 146.470399 
L 295.171711 140.877954 
L 126.615913 139.759465 
L 126.7863 89.427462 
L 127.081831 64.820705 
L 127.471163 49.16186 
L 127.987427 36.858481 
L 128.635086 26.792081 
L 129.01535 22.318125 
L 129.01535 22.318125 
" clip-path="url(#p0a7314f21c)" style="fill: none; stroke: #8b0000; stroke-width: 0.25; stroke-linecap: square"/>
   </g>
   <g id="line2d_83">
    <path d="M 310.58506 300.821875 
L 310.456086 219.172181 
L 310.201965 190.091468 
L 309.843689 172.195645 
L 309.367935 158.773778 
L 308.815129 148.707377 
L 308.1064 139.759465 
L 307.3811 133.048532 
L 306.420462 126.337598 
L 305.369688 120.745153 
L 304.865409 118.508175 
L 147.67571 117.389686 
L 147.864857 76.005595 
L 148.161362 54.754305 
L 148.567461 40.213948 
L 149.09419 29.029059 
L 149.552075 22.318125 
L 149.552075 22.318125 
" clip-path="url(#p0a7314f21c)" style="fill: none; stroke: #8b0000; stroke-width: 0.25; stroke-linecap: square"/>
   </g>
   <g id="line2d_84">
    <path d="M 323.473497 300.821875 
L 323.344154 213.579736 
L 323.092013 184.499024 
L 322.736976 166.6032 
L 322.266572 153.181333 
L 321.647596 141.996443 
L 320.922626 133.048532 
L 320.185752 126.337598 
L 319.219583 119.626664 
L 318.178213 114.034219 
L 317.139262 109.560264 
L 315.859087 105.086308 
L 314.693334 101.730841 
L 313.791974 99.493863 
L 169.624006 98.375374 
L 169.7923 56.991283 
L 170.067654 39.095459 
L 170.477314 26.792081 
L 170.705652 22.318125 
L 170.705652 22.318125 
" clip-path="url(#p0a7314f21c)" style="fill: none; stroke: #8b0000; stroke-width: 0.25; stroke-linecap: square"/>
   </g>
   <g id="line2d_85">
    <path d="M 336.94195 300.821875 
L 336.815009 209.105781 
L 336.569338 180.025068 
L 336.193714 161.010756 
L 335.717288 147.588888 
L 335.091552 136.403998 
L 334.360705 127.456087 
L 333.477112 119.626664 
L 332.467162 112.91573 
L 331.384751 107.323286 
L 330.312486 102.84933 
L 329.003664 98.375374 
L 327.825618 95.019907 
L 326.434334 91.66444 
L 324.771919 88.308973 
L 323.472339 86.071995 
L 321.978493 83.835018 
L 192.760188 82.716529 
L 192.535632 25.673592 
L 192.603364 22.318125 
L 192.603364 22.318125 
" clip-path="url(#p0a7314f21c)" style="fill: none; stroke: #8b0000; stroke-width: 0.25; stroke-linecap: square"/>
   </g>
   <g id="line2d_86">
    <path d="M 350.976177 300.821875 
L 350.854712 205.750314 
L 350.605923 175.551112 
L 350.233736 156.5368 
L 349.762209 143.114932 
L 349.143911 131.930043 
L 348.423359 122.982131 
L 347.554819 115.152708 
L 346.56605 108.441775 
L 345.51172 102.84933 
L 344.473527 98.375374 
L 343.215911 93.901418 
L 341.68022 89.427462 
L 340.29767 86.071995 
L 338.664833 82.716529 
L 336.714161 79.361062 
L 335.189749 77.124084 
L 333.438135 74.887106 
L 331.398269 72.650128 
L 328.976775 70.41315 
L 327.577892 69.294661 
L 217.619349 68.176172 
L 216.780406 50.280349 
L 215.474748 23.436614 
L 215.439553 22.318125 
L 215.439553 22.318125 
" clip-path="url(#p0a7314f21c)" style="fill: none; stroke: #8b0000; stroke-width: 0.25; stroke-linecap: square"/>
   </g>
   <g id="line2d_87">
    <path d="M 365.563146 300.821875 
L 365.440292 201.276358 
L 365.18999 171.077156 
L 364.815762 152.062844 
L 364.342053 138.640976 
L 363.721617 127.456087 
L 362.999686 118.508175 
L 362.131215 110.678753 
L 361.145057 103.967819 
L 360.096796 98.375374 
L 359.068254 93.901418 
L 357.827769 89.427462 
L 356.3221 84.953507 
L 354.976278 81.59804 
L 353.400316 78.242573 
L 351.539624 74.887106 
L 350.104725 72.650128 
L 348.479873 70.41315 
L 346.624721 68.176172 
L 344.483443 65.939194 
L 341.974525 63.702216 
L 338.969629 61.465238 
L 337.217095 60.346749 
L 335.242454 59.228261 
L 332.977554 58.109772 
L 330.309207 56.991283 
L 245.532116 55.872794 
L 243.859424 48.043371 
L 241.95346 37.97697 
L 240.474521 29.029059 
L 239.530726 22.318125 
L 239.530726 22.318125 
" clip-path="url(#p0a7314f21c)" style="fill: none; stroke: #8b0000; stroke-width: 0.25; stroke-linecap: square"/>
   </g>
   <g id="line2d_88">
    <path d="M 380.690884 300.821875 
L 380.570289 197.920891 
L 380.325482 167.721689 
L 379.959732 148.707377 
L 379.497212 135.28551 
L 378.892239 124.10062 
L 378.189505 115.152708 
L 377.345942 107.323286 
L 376.390625 100.612352 
L 375.378349 95.019907 
L 374.111654 89.427462 
L 372.866199 84.953507 
L 371.360561 80.479551 
L 370.021038 77.124084 
L 368.460895 73.768617 
L 366.632145 70.41315 
L 364.470668 67.057683 
L 362.802278 64.820705 
L 360.911649 62.583727 
L 358.751642 60.346749 
L 356.257353 58.109772 
L 353.33478 55.872794 
L 349.837938 53.635816 
L 347.802606 52.517327 
L 345.515698 51.398838 
L 342.905461 50.280349 
L 339.858124 49.16186 
L 336.172758 48.043371 
L 331.426074 46.924882 
L 324.339908 45.806393 
L 285.557786 44.687904 
L 280.2329 43.569415 
L 277.90852 42.450926 
L 276.292896 41.332437 
L 275.019322 40.213948 
L 273.023442 37.97697 
L 271.447658 35.739992 
L 270.124274 33.503015 
L 268.44834 30.147548 
L 267.030919 26.792081 
L 265.432617 22.318125 
L 265.432617 22.318125 
" clip-path="url(#p0a7314f21c)" style="fill: none; stroke: #8b0000; stroke-width: 0.25; stroke-linecap: square"/>
   </g>
   <g id="line2d_89">
    <path d="M 396.348334 300.821875 
L 396.228747 194.565424 
L 395.98676 164.366222 
L 395.625436 145.35191 
L 395.168891 131.930043 
L 394.572385 120.745153 
L 393.88045 111.797241 
L 393.051279 103.967819 
L 392.114243 97.256885 
L 391.123771 91.66444 
L 389.888129 86.071995 
L 388.677594 81.59804 
L 387.220478 77.124084 
L 385.930427 73.768617 
L 384.436087 70.41315 
L 382.696799 67.057683 
L 380.660253 63.702216 
L 379.104207 61.465238 
L 377.35965 59.228261 
L 375.393825 56.991283 
L 373.16489 54.754305 
L 370.618015 52.517327 
L 367.679042 50.280349 
L 364.243664 48.043371 
L 360.157718 45.806393 
L 357.800168 44.687904 
L 355.178577 43.569415 
L 352.2357 42.450926 
L 348.894336 41.332437 
L 345.049705 40.213948 
L 340.564501 39.095459 
L 335.290792 37.97697 
L 316.83162 34.621504 
L 312.069409 33.503015 
L 308.412611 32.384526 
L 305.573389 31.266037 
L 303.29789 30.147548 
L 301.414081 29.029059 
L 299.81136 27.91057 
L 297.185147 25.673592 
L 295.078521 23.436614 
L 294.163119 22.318125 
L 294.163119 22.318125 
" clip-path="url(#p0a7314f21c)" style="fill: none; stroke: #8b0000; stroke-width: 0.25; stroke-linecap: square"/>
   </g>
   <g id="line2d_90">
    <path d="M 412.525253 300.821875 
L 412.405612 191.209957 
L 412.164198 161.010756 
L 411.803914 141.996443 
L 411.349003 128.574576 
L 410.755187 117.389686 
L 410.067184 108.441775 
L 409.243918 100.612352 
L 408.315194 93.901418 
L 407.335493 88.308973 
L 406.11632 82.716529 
L 404.925393 78.242573 
L 403.496776 73.768617 
L 402.236756 70.41315 
L 400.783284 67.057683 
L 399.100486 63.702216 
L 397.143491 60.346749 
L 394.855211 56.991283 
L 393.109953 54.754305 
L 391.157468 52.517327 
L 388.964118 50.280349 
L 386.48833 48.043371 
L 383.678109 45.806393 
L 380.467718 43.569415 
L 376.773551 41.332437 
L 372.490016 39.095459 
L 367.48937 36.858481 
L 361.640201 34.621504 
L 354.890131 32.384526 
L 336.941317 26.792081 
L 333.97503 25.673592 
L 331.33564 24.555103 
L 328.999655 23.436614 
L 326.930555 22.318125 
L 326.930555 22.318125 
" clip-path="url(#p0a7314f21c)" style="fill: none; stroke: #8b0000; stroke-width: 0.25; stroke-linecap: square"/>
   </g>
   <g id="line2d_91">
    <path d="M 429.212107 300.821875 
L 429.096346 188.972979 
L 428.863197 158.773778 
L 428.515459 139.759465 
L 428.029539 125.219109 
L 427.433486 114.034219 
L 426.743607 105.086308 
L 425.919142 97.256885 
L 424.990487 90.545951 
L 424.012574 84.953507 
L 422.798213 79.361062 
L 421.614922 74.887106 
L 420.199544 70.41315 
L 418.500453 65.939194 
L 417.000966 62.583727 
L 415.2705 59.228261 
L 413.2665 55.872794 
L 410.936265 52.517327 
L 409.169642 50.280349 
L 407.205505 48.043371 
L 405.016288 45.806393 
L 402.569787 43.569415 
L 399.828616 41.332437 
L 396.750052 39.095459 
L 393.286962 36.858481 
L 389.391206 34.621504 
L 385.022355 32.384526 
L 380.166679 30.147548 
L 372.104957 26.792081 
L 361.063325 22.318125 
L 361.063325 22.318125 
" clip-path="url(#p0a7314f21c)" style="fill: none; stroke: #8b0000; stroke-width: 0.25; stroke-linecap: square"/>
   </g>
   <g id="line2d_92">
    <path d="M 446.4 300.821875 
L 446.282493 185.617513 
L 446.046367 155.418311 
L 445.69433 136.403998 
L 445.202687 121.863642 
L 444.600078 110.678753 
L 443.903267 101.730841 
L 443.071473 93.901418 
L 442.135857 87.190484 
L 441.152162 81.59804 
L 439.932946 76.005595 
L 438.747537 71.531639 
L 437.333229 67.057683 
L 435.640967 62.583727 
L 434.152909 59.228261 
L 432.442421 55.872794 
L 430.471387 52.517327 
L 428.193964 49.16186 
L 425.555 45.806393 
L 423.562749 43.569415 
L 421.358364 41.332437 
L 418.917303 39.095459 
L 416.213436 36.858481 
L 413.220383 34.621504 
L 409.914187 32.384526 
L 406.278147 30.147548 
L 402.310812 27.91057 
L 395.805736 24.555103 
L 391.216543 22.318125 
L 391.216543 22.318125 
" clip-path="url(#p0a7314f21c)" style="fill: none; stroke: #8b0000; stroke-width: 0.25; stroke-linecap: square"/>
   </g>
   <g id="line2d_93">
    <path d="M 297.678722 44.787405 
L 297.701046 44.787393 
L 297.72337 44.787383 
L 297.745693 44.787376 
L 297.768017 44.78737 
L 297.790341 44.787368 
L 297.812665 44.787368 
L 297.834988 44.787372 
L 297.857312 44.787379 
L 297.879636 44.78739 
L 297.90196 44.787405 
" clip-path="url(#p0a7314f21c)" style="fill: none; stroke: #000000; stroke-width: 0.5; stroke-linecap: square"/>
   </g>
   <g id="line2d_94">
    <path d="M 46.545795 301.126318 
L 50.383186 288.72751 
L 54.224304 277.00706 
L 58.072107 265.91465 
L 61.929029 255.404611 
L 65.797099 245.435377 
L 69.678029 235.96902 
L 73.573283 226.970847 
L 77.484138 218.409063 
L 82.19935 208.670009 
L 86.940428 199.471375 
L 91.709003 190.771406 
L 96.506628 182.532173 
L 101.334821 174.719162 
L 106.195112 167.300915 
L 111.089075 160.248722 
L 116.018357 153.536343 
L 120.98471 147.139768 
L 125.990012 141.036996 
L 131.036301 135.207844 
L 136.125801 129.633772 
L 141.260954 124.297731 
L 147.313282 118.35231 
L 153.43624 112.686694 
L 159.635305 107.280047 
L 165.916767 102.113325 
L 172.287918 97.169086 
L 178.757294 92.431309 
L 185.335014 87.885228 
L 192.033226 83.517185 
L 198.866765 79.314487 
L 205.854106 75.265261 
L 213.018841 71.358313 
L 220.39209 67.582965 
L 228.016705 63.928871 
L 235.955221 60.385766 
L 243.08277 57.42918 
L 250.615836 54.539269 
L 257.335147 52.176098 
L 264.684439 49.847707 
L 271.36122 48.004511 
L 277.339806 46.628907 
L 282.494572 45.686654 
L 286.152117 45.234744 
L 297.678722 44.787405 
L 297.678722 44.787405 
" clip-path="url(#p0a7314f21c)" style="fill: none; stroke: #000000; stroke-width: 0.5; stroke-linecap: square"/>
   </g>
   <g id="line2d_95">
    <path d="M 61.409507 301.126318 
L 65.106967 288.72751 
L 68.809614 277.00706 
L 72.520106 265.91465 
L 76.24061 255.404611 
L 79.9729 245.435377 
L 83.71845 235.96902 
L 87.478491 226.970847 
L 92.011135 216.746461 
L 96.567702 207.100552 
L 101.149541 197.98782 
L 105.757868 189.367177 
L 110.393826 181.201292 
L 115.058527 173.456181 
L 119.753099 166.100867 
L 124.478711 159.107069 
L 129.236606 152.448935 
L 134.028128 146.102803 
L 138.854742 140.046989 
L 143.718064 134.261596 
L 149.440727 127.829446 
L 155.218975 121.714014 
L 161.056428 115.891186 
L 166.957221 110.338999 
L 172.926105 105.03741 
L 178.96858 99.968088 
L 185.091057 95.114217 
L 191.301087 90.460335 
L 197.607664 85.99217 
L 204.021651 81.696492 
L 210.556402 77.560979 
L 217.228679 73.574066 
L 224.060124 69.724801 
L 231.079719 66.002674 
L 238.328244 62.39741 
L 245.867066 58.898677 
L 252.634945 55.976367 
L 259.801772 53.116829 
L 266.234934 50.775344 
L 271.879812 48.924349 
L 276.632964 47.545601 
L 282.331866 46.162441 
L 284.647507 45.686654 
L 287.717068 45.234744 
L 297.790341 44.787368 
L 297.790341 44.787368 
" clip-path="url(#p0a7314f21c)" style="fill: none; stroke: #000000; stroke-width: 0.25; stroke-linecap: square"/>
   </g>
   <g id="line2d_96">
    <path d="M 76.273218 301.126318 
L 79.830748 288.72751 
L 83.394924 277.00706 
L 86.968106 265.91465 
L 90.55219 255.404611 
L 94.148701 245.435377 
L 98.482635 234.132988 
L 102.837923 223.495458 
L 107.215909 213.469212 
L 111.617673 204.005844 
L 116.044119 195.061512 
L 120.496035 186.59643 
L 124.974147 178.574424 
L 129.479162 170.962548 
L 134.011806 163.730757 
L 138.572855 156.851606 
L 143.163162 150.3 
L 147.783678 144.052959 
L 152.435474 138.089413 
L 157.903728 131.464535 
L 163.418412 125.171223 
L 168.982068 119.184014 
L 174.597635 113.479747 
L 180.268512 108.03731 
L 185.998644 102.837416 
L 191.792629 97.862406 
L 197.655861 93.096066 
L 203.594726 88.52346 
L 210.484488 83.517185 
L 217.497158 78.726898 
L 224.650764 74.134947 
L 231.969142 69.724801 
L 239.485302 65.480721 
L 246.261938 61.891314 
L 253.277667 58.406934 
L 260.617865 55.016619 
L 267.289751 52.176098 
L 273.284463 49.847707 
L 278.594589 48.004511 
L 283.206751 46.628907 
L 286.800442 45.686654 
L 289.28202 45.234744 
L 297.790341 44.787368 
L 297.790341 44.787368 
" clip-path="url(#p0a7314f21c)" style="fill: none; stroke: #000000; stroke-width: 0.25; stroke-linecap: square"/>
   </g>
   <g id="line2d_97">
    <path d="M 91.13693 301.126318 
L 94.554529 288.72751 
L 97.980233 277.00706 
L 101.416106 265.91465 
L 105.554837 253.368763 
L 109.712683 241.5905 
L 113.89124 230.51603 
L 118.091677 220.087946 
L 122.314845 210.254468 
L 126.561367 200.968773 
L 130.831704 192.188425 
L 135.12622 183.874888 
L 139.445224 175.993102 
L 143.78902 168.511126 
L 148.157935 161.399809 
L 152.552351 154.63252 
L 156.972725 148.18489 
L 162.163385 141.036996 
L 167.391217 134.261596 
L 172.657544 127.829446 
L 177.963962 121.714014 
L 183.312373 115.891186 
L 188.705028 110.338999 
L 194.144573 105.03741 
L 199.634117 99.968088 
L 205.973818 94.437478 
L 212.390146 89.165363 
L 218.891084 84.130782 
L 225.486542 79.314487 
L 232.189092 74.698669 
L 239.01518 70.26667 
L 245.987293 66.002674 
L 253.138229 61.891314 
L 260.520519 57.917113 
L 267.243486 54.539269 
L 273.302239 51.707856 
L 278.700308 49.385536 
L 283.457524 47.545601 
L 288.953378 45.686654 
L 290.846972 45.234744 
L 297.790341 44.787368 
L 297.790341 44.787368 
" clip-path="url(#p0a7314f21c)" style="fill: none; stroke: #000000; stroke-width: 0.25; stroke-linecap: square"/>
   </g>
   <g id="line2d_98">
    <path d="M 106.000642 301.126318 
L 109.934928 286.330833 
L 113.883524 272.497386 
L 117.849259 259.541488 
L 121.834177 247.387829 
L 125.839712 235.96902 
L 129.866829 225.22455 
L 133.916132 215.099916 
L 137.987956 205.545896 
L 142.082439 196.517925 
L 146.19959 187.975573 
L 150.339338 179.882092 
L 154.50158 172.204022 
L 158.686216 164.910855 
L 162.893185 157.974735 
L 167.829539 150.3 
L 172.796421 143.03989 
L 177.794143 136.161174 
L 182.823218 129.633772 
L 187.884383 123.430411 
L 192.978613 117.526312 
L 198.107136 111.898924 
L 203.271463 106.527678 
L 209.219739 100.678709 
L 215.220438 95.114217 
L 221.277544 89.810975 
L 227.395914 84.747787 
L 233.581521 79.905208 
L 239.841833 75.265261 
L 246.98604 70.26667 
L 254.255796 65.480721 
L 261.679608 60.885522 
L 268.447054 56.943102 
L 275.443772 53.116829 
L 281.884488 49.847707 
L 286.869804 47.545601 
L 292.411924 45.234744 
L 297.790341 44.787368 
L 297.790341 44.787368 
" clip-path="url(#p0a7314f21c)" style="fill: none; stroke: #000000; stroke-width: 0.25; stroke-linecap: square"/>
   </g>
   <g id="line2d_99">
    <path d="M 120.864354 301.126318 
L 124.630908 286.330833 
L 128.413786 272.497386 
L 132.215317 259.541488 
L 136.037094 247.387829 
L 139.880132 235.96902 
L 143.744994 225.22455 
L 147.631889 215.099916 
L 151.540757 205.545896 
L 155.471344 196.517925 
L 159.42326 187.975573 
L 163.396034 179.882092 
L 167.389156 172.204022 
L 171.402117 164.910855 
L 176.108346 156.851606 
L 180.840267 149.238268 
L 185.597353 142.034599 
L 190.379234 135.207844 
L 195.185716 128.728342 
L 200.016782 122.569195 
L 204.872592 116.705958 
L 210.452835 110.338999 
L 216.066636 104.299409 
L 221.715084 98.559983 
L 227.399573 93.096066 
L 233.121822 87.885228 
L 239.607077 82.300076 
L 246.146304 76.982583 
L 252.743853 71.908147 
L 259.405206 67.053767 
L 266.890813 61.891314 
L 274.482204 56.943102 
L 282.221656 52.176098 
L 288.618207 48.464047 
L 292.794468 46.162441 
L 293.259249 45.686654 
L 293.976876 45.234744 
L 297.790341 44.787368 
L 297.790341 44.787368 
" clip-path="url(#p0a7314f21c)" style="fill: none; stroke: #000000; stroke-width: 0.25; stroke-linecap: square"/>
   </g>
   <g id="line2d_100">
    <path d="M 135.728066 301.126318 
L 139.326889 286.330833 
L 142.944048 272.497386 
L 146.581375 259.541488 
L 150.240011 247.387829 
L 153.920553 235.96902 
L 157.623159 225.22455 
L 161.347645 215.099916 
L 165.093558 205.545896 
L 168.860249 196.517925 
L 172.646931 187.975573 
L 176.45273 179.882092 
L 180.276732 172.204022 
L 184.75985 163.730757 
L 189.265085 155.737571 
L 193.791119 148.18489 
L 198.336758 141.036996 
L 202.900947 134.261596 
L 207.48277 127.829446 
L 212.081441 121.714014 
L 217.35684 115.081933 
L 222.652517 108.79952 
L 227.967719 102.837416 
L 233.301735 97.169086 
L 239.324046 91.113484 
L 245.367899 85.368237 
L 251.431478 79.905208 
L 258.188533 74.134947 
L 264.960323 68.648814 
L 272.413287 62.905682 
L 280.517355 56.943102 
L 295.410118 46.162441 
L 295.412184 45.686654 
L 295.541828 45.234744 
L 297.790341 44.787368 
L 297.790341 44.787368 
" clip-path="url(#p0a7314f21c)" style="fill: none; stroke: #000000; stroke-width: 0.25; stroke-linecap: square"/>
   </g>
   <g id="line2d_101">
    <path d="M 150.591777 301.126318 
L 154.022869 286.330833 
L 157.47431 272.497386 
L 160.947433 259.541488 
L 164.442929 247.387829 
L 167.960974 235.96902 
L 171.501325 225.22455 
L 175.063401 215.099916 
L 178.646359 205.545896 
L 182.249154 196.517925 
L 185.870601 187.975573 
L 190.117494 178.574424 
L 194.385941 169.731627 
L 198.673839 161.399809 
L 202.979138 153.536343 
L 207.29988 146.102803 
L 211.634214 139.064491 
L 215.980406 132.390022 
L 220.959906 125.171223 
L 225.950434 118.35231 
L 230.94972 111.898924 
L 235.955458 105.78015 
L 241.591553 99.261861 
L 247.228715 93.096066 
L 252.862115 87.250627 
L 259.10943 81.096176 
L 265.332628 75.265261 
L 272.129163 69.185525 
L 280.643397 61.891314 
L 294.279579 50.31095 
L 296.67801 48.004511 
L 297.874112 46.628907 
L 298.025768 46.162441 
L 297.10678 45.234744 
L 297.790341 44.787368 
L 297.790341 44.787368 
" clip-path="url(#p0a7314f21c)" style="fill: none; stroke: #000000; stroke-width: 0.25; stroke-linecap: square"/>
   </g>
   <g id="line2d_102">
    <path d="M 165.455489 301.126318 
L 168.718849 286.330833 
L 172.004572 272.497386 
L 175.313491 259.541488 
L 178.645846 247.387829 
L 182.001395 235.96902 
L 185.37949 225.22455 
L 188.779157 215.099916 
L 192.19916 205.545896 
L 195.638059 196.517925 
L 199.671873 186.59643 
L 203.726583 177.278142 
L 207.799439 168.511126 
L 211.88769 160.248722 
L 215.988633 152.448935 
L 220.099646 145.073898 
L 224.807037 137.121669 
L 229.520635 129.633772 
L 234.236886 122.569195 
L 238.952234 115.891186 
L 244.251346 108.79952 
L 249.539021 102.113325 
L 254.808831 95.795036 
L 260.633814 89.165363 
L 266.988646 82.300076 
L 273.82956 75.265261 
L 281.623462 67.582965 
L 294.956235 54.539269 
L 297.965914 51.240958 
L 299.423403 49.385536 
L 300.294695 48.004511 
L 300.695281 47.087141 
L 300.807584 46.628907 
L 300.641418 46.162441 
L 297.790341 44.787368 
L 297.790341 44.787368 
" clip-path="url(#p0a7314f21c)" style="fill: none; stroke: #000000; stroke-width: 0.25; stroke-linecap: square"/>
   </g>
   <g id="line2d_103">
    <path d="M 180.319201 301.126318 
L 183.414829 286.330833 
L 186.534834 272.497386 
L 189.679548 259.541488 
L 192.848763 247.387829 
L 196.041815 235.96902 
L 199.257655 225.22455 
L 202.494914 215.099916 
L 205.751961 205.545896 
L 209.574406 195.061512 
L 213.418128 185.229588 
L 217.279803 175.993102 
L 221.156032 167.300915 
L 225.043412 159.107069 
L 228.938584 151.370188 
L 233.395537 143.03989 
L 237.853581 135.207844 
L 242.307996 127.829446 
L 246.754057 120.864801 
L 251.739829 113.479747 
L 256.701475 106.527678 
L 262.176018 99.261861 
L 267.597115 92.431309 
L 273.478385 85.368237 
L 280.27746 77.560979 
L 290.235161 66.527013 
L 296.995328 58.898677 
L 300.140246 55.016619 
L 301.828985 52.645739 
L 302.942069 50.775344 
L 303.568022 49.385536 
L 303.911379 48.004511 
L 303.882302 47.087141 
L 303.741056 46.628907 
L 303.257069 46.162441 
L 300.236683 45.234744 
L 297.790341 44.787368 
L 297.790341 44.787368 
" clip-path="url(#p0a7314f21c)" style="fill: none; stroke: #000000; stroke-width: 0.25; stroke-linecap: square"/>
   </g>
   <g id="line2d_104">
    <path d="M 195.182913 301.126318 
L 198.110809 286.330833 
L 201.065096 272.497386 
L 204.045606 259.541488 
L 207.051681 247.387829 
L 210.082236 235.96902 
L 213.135821 225.22455 
L 216.725074 213.469212 
L 220.340021 202.4802 
L 223.977064 192.188425 
L 227.632352 182.532173 
L 231.30189 173.456181 
L 234.981623 164.910855 
L 238.667499 156.851606 
L 242.88231 148.18489 
L 247.094016 140.046989 
L 251.296793 132.390022 
L 256.006971 124.297731 
L 260.689919 116.705958 
L 265.850175 108.79952 
L 270.951642 101.393772 
L 276.475649 93.764775 
L 282.848547 85.368237 
L 290.823423 75.265261 
L 299.753549 63.928871 
L 303.049739 59.392375 
L 304.954871 56.458843 
L 306.283937 54.063549 
L 307.108165 52.176098 
L 307.530461 50.775344 
L 307.712641 49.385536 
L 307.642793 48.464047 
L 307.343484 47.545601 
L 306.674529 46.628907 
L 305.872719 46.162441 
L 304.023926 45.686654 
L 301.801635 45.234744 
L 297.790341 44.787368 
L 297.790341 44.787368 
" clip-path="url(#p0a7314f21c)" style="fill: none; stroke: #000000; stroke-width: 0.25; stroke-linecap: square"/>
   </g>
   <g id="line2d_105">
    <path d="M 210.046625 301.126318 
L 212.806789 286.330833 
L 215.595358 272.497386 
L 218.411664 259.541488 
L 221.254598 247.387829 
L 224.122657 235.96902 
L 227.497989 223.495458 
L 230.90152 211.854133 
L 234.329329 200.968773 
L 237.777145 190.771406 
L 241.240456 181.201292 
L 244.714613 172.204022 
L 248.692317 162.560448 
L 252.671013 153.536343 
L 256.643743 145.073898 
L 260.603606 137.121669 
L 265.034472 128.728342 
L 269.430276 120.864801 
L 274.260504 112.686694 
L 279.489582 104.299409 
L 285.064938 95.795036 
L 291.78303 85.99217 
L 305.617588 66.002674 
L 308.148564 61.891314 
L 309.777394 58.898677 
L 310.896172 56.458843 
L 311.583884 54.539269 
L 312.024236 52.645739 
L 312.135472 51.240958 
L 311.984574 49.847707 
L 311.681254 48.924349 
L 311.144748 48.004511 
L 310.256345 47.087141 
L 309.608001 46.628907 
L 308.488369 46.162441 
L 306.176861 45.686654 
L 303.366587 45.234744 
L 297.790341 44.787368 
L 297.790341 44.787368 
" clip-path="url(#p0a7314f21c)" style="fill: none; stroke: #000000; stroke-width: 0.25; stroke-linecap: square"/>
   </g>
   <g id="line2d_106">
    <path d="M 224.910336 301.126318 
L 227.502769 286.330833 
L 230.12562 272.497386 
L 232.777722 259.541488 
L 235.90671 245.435377 
L 239.070277 232.315411 
L 242.264717 220.087946 
L 245.485802 208.670009 
L 248.728874 197.98782 
L 251.988953 187.975573 
L 255.260841 178.574424 
L 259.007775 168.511126 
L 262.755174 159.107069 
L 266.495046 150.3 
L 270.683504 141.036996 
L 274.841051 132.390022 
L 279.410277 123.430411 
L 283.910547 115.081933 
L 288.759481 106.527678 
L 294.315553 97.169086 
L 301.975044 84.747787 
L 309.159212 73.015992 
L 312.239147 67.582965 
L 314.342478 63.416159 
L 315.636987 60.385766 
L 316.47154 57.917113 
L 316.93286 55.976367 
L 317.156321 54.063549 
L 317.121861 52.645739 
L 316.858658 51.240958 
L 316.51759 50.31095 
L 316.001879 49.385536 
L 315.252628 48.464047 
L 314.168044 47.545601 
L 312.541473 46.628907 
L 311.10402 46.162441 
L 308.329797 45.686654 
L 304.931539 45.234744 
L 297.790341 44.787368 
L 297.790341 44.787368 
" clip-path="url(#p0a7314f21c)" style="fill: none; stroke: #000000; stroke-width: 0.25; stroke-linecap: square"/>
   </g>
   <g id="line2d_107">
    <path d="M 239.774048 301.126318 
L 242.198749 286.330833 
L 245.068445 270.279269 
L 247.979578 255.404611 
L 250.928823 241.5905 
L 253.912248 228.734593 
L 256.925357 216.746461 
L 259.963164 205.545896 
L 263.020284 195.061512 
L 266.530479 183.874888 
L 270.049678 173.456181 
L 273.568928 163.730757 
L 277.079238 154.63252 
L 281.006475 145.073898 
L 284.898255 136.161174 
L 289.165108 126.937009 
L 293.767512 117.526312 
L 299.047759 107.280047 
L 305.235676 95.795036 
L 315.733401 76.407187 
L 318.474205 70.811164 
L 320.32073 66.527013 
L 321.443537 63.416159 
L 322.161563 60.885522 
L 322.630245 58.406934 
L 322.778774 56.458843 
L 322.668984 54.539269 
L 322.369772 53.116829 
L 321.828649 51.707856 
L 320.965192 50.31095 
L 320.146498 49.385536 
L 319.057546 48.464047 
L 317.580324 47.545601 
L 315.474945 46.628907 
L 313.71967 46.162441 
L 310.482732 45.686654 
L 306.496491 45.234744 
L 297.790341 44.787368 
L 297.790341 44.787368 
" clip-path="url(#p0a7314f21c)" style="fill: none; stroke: #000000; stroke-width: 0.25; stroke-linecap: square"/>
   </g>
   <g id="line2d_108">
    <path d="M 254.63776 301.126318 
L 257.274295 283.960856 
L 259.957237 268.085143 
L 262.683032 253.368763 
L 265.447573 239.697506 
L 268.246194 226.970847 
L 271.073695 215.099916 
L 273.924404 204.005844 
L 277.202983 192.188425 
L 280.494446 181.201292 
L 283.788989 170.962548 
L 287.486651 160.248722 
L 291.161423 150.3 
L 295.20036 140.046989 
L 299.173794 130.545811 
L 303.826726 120.02149 
L 309.047834 108.79952 
L 317.272121 91.770462 
L 322.026775 81.696492 
L 324.577991 75.834757 
L 326.312152 71.358313 
L 327.54699 67.582965 
L 328.34324 64.443849 
L 328.777439 61.891314 
L 328.952243 59.392375 
L 328.859907 57.42918 
L 328.507311 55.495638 
L 328.028705 54.063549 
L 327.317111 52.645739 
L 326.30503 51.240958 
L 325.412794 50.31095 
L 324.291117 49.385536 
L 322.862463 48.464047 
L 320.992604 47.545601 
L 318.408418 46.628907 
L 316.33532 46.162441 
L 312.635667 45.686654 
L 308.061443 45.234744 
L 297.90196 44.787405 
L 297.90196 44.787405 
" clip-path="url(#p0a7314f21c)" style="fill: none; stroke: #000000; stroke-width: 0.5; stroke-linecap: square"/>
   </g>
   <g id="patch_3">
    <path d="M 51.4 300.821875 
L 51.4 22.318125 
" style="fill: none; stroke: #000000; stroke-width: 0.8; stroke-linejoin: miter; stroke-linecap: square"/>
   </g>
   <g id="patch_4">
    <path d="M 446.4 300.821875 
L 446.4 22.318125 
" style="fill: none; stroke: #000000; stroke-width: 0.8; stroke-linejoin: miter; stroke-linecap: square"/>
   </g>
   <g id="patch_5">
    <path d="M 51.4 300.821875 
L 446.4 300.821875 
" style="fill: none; stroke: #000000; stroke-width: 0.8; stroke-linejoin: miter; stroke-linecap: square"/>
   </g>
   <g id="patch_6">
    <path d="M 51.4 22.318125 
L 446.4 22.318125 
" style="fill: none; stroke: #000000; stroke-width: 0.8; stroke-linejoin: miter; stroke-linecap: square"/>
   </g>
   <g id="text_12">
    <!-- R134a P-H Diagram -->
    <g transform="translate(189.8675 16.318125)scale(0.12 -0.12)">
     <defs>
      <path id="DejaVuSans-52" d="M 2841 2188 
Q 3044 2119 3236 1894 
Q 3428 1669 3622 1275 
L 4263 0 
L 3584 0 
L 2988 1197 
Q 2756 1666 2539 1819 
Q 2322 1972 1947 1972 
L 1259 1972 
L 1259 0 
L 628 0 
L 628 4666 
L 2053 4666 
Q 2853 4666 3247 4331 
Q 3641 3997 3641 3322 
Q 3641 2881 3436 2590 
Q 3231 2300 2841 2188 
z
M 1259 4147 
L 1259 2491 
L 2053 2491 
Q 2509 2491 2742 2702 
Q 2975 2913 2975 3322 
Q 2975 3731 2742 3939 
Q 2509 4147 2053 4147 
L 1259 4147 
z
" transform="scale(0.015625)"/>
      <path id="DejaVuSans-2d" d="M 313 2009 
L 1997 2009 
L 1997 1497 
L 313 1497 
L 313 2009 
z
" transform="scale(0.015625)"/>
      <path id="DejaVuSans-48" d="M 628 4666 
L 1259 4666 
L 1259 2753 
L 3553 2753 
L 3553 4666 
L 4184 4666 
L 4184 0 
L 3553 0 
L 3553 2222 
L 1259 2222 
L 1259 0 
L 628 0 
L 628 4666 
z
" transform="scale(0.015625)"/>
      <path id="DejaVuSans-44" d="M 1259 4147 
L 1259 519 
L 2022 519 
Q 2988 519 3436 956 
Q 3884 1394 3884 2338 
Q 3884 3275 3436 3711 
Q 2988 4147 2022 4147 
L 1259 4147 
z
M 628 4666 
L 1925 4666 
Q 3281 4666 3915 4102 
Q 4550 3538 4550 2338 
Q 4550 1131 3912 565 
Q 3275 0 1925 0 
L 628 0 
L 628 4666 
z
" transform="scale(0.015625)"/>
      <path id="DejaVuSans-6d" d="M 3328 2828 
Q 3544 3216 3844 3400 
Q 4144 3584 4550 3584 
Q 5097 3584 5394 3201 
Q 5691 2819 5691 2113 
L 5691 0 
L 5113 0 
L 5113 2094 
Q 5113 2597 4934 2840 
Q 4756 3084 4391 3084 
Q 3944 3084 3684 2787 
Q 3425 2491 3425 1978 
L 3425 0 
L 2847 0 
L 2847 2094 
Q 2847 2600 2669 2842 
Q 2491 3084 2119 3084 
Q 1678 3084 1418 2786 
Q 1159 2488 1159 1978 
L 1159 0 
L 581 0 
L 581 3500 
L 1159 3500 
L 1159 2956 
Q 1356 3278 1631 3431 
Q 1906 3584 2284 3584 
Q 2666 3584 2933 3390 
Q 3200 3197 3328 2828 
z
" transform="scale(0.015625)"/>
     </defs>
     <use xlink:href="#DejaVuSans-52"/>
     <use xlink:href="#DejaVuSans-31" x="69.482422"/>
     <use xlink:href="#DejaVuSans-33" x="133.105469"/>
     <use xlink:href="#DejaVuSans-34" x="196.728516"/>
     <use xlink:href="#DejaVuSans-61" x="260.351562"/>
     <use xlink:href="#DejaVuSans-20" x="321.630859"/>
     <use xlink:href="#DejaVuSans-50" x="353.417969"/>
     <use xlink:href="#DejaVuSans-2d" x="411.470703"/>
     <use xlink:href="#DejaVuSans-48" x="447.554688"/>
     <use xlink:href="#DejaVuSans-20" x="522.75"/>
     <use xlink:href="#DejaVuSans-44" x="554.537109"/>
     <use xlink:href="#DejaVuSans-69" x="631.539062"/>
     <use xlink:href="#DejaVuSans-61" x="659.322266"/>
     <use xlink:href="#DejaVuSans-67" x="720.601562"/>
     <use xlink:href="#DejaVuSans-72" x="784.078125"/>
     <use xlink:href="#DejaVuSans-61" x="825.191406"/>
     <use xlink:href="#DejaVuSans-6d" x="886.470703"/>
    </g>
   </g>
  </g>
 </g>
 <defs>
  <clipPath id="p0a7314f21c">
   <rect x="51.4" y="22.318125" width="395" height="278.50375"/>
  </clipPath>
 </defs>
</svg>
